<svg xmlns="http://www.w3.org/2000/svg" xmlns:xlink="http://www.w3.org/1999/xlink" width="425" height="539" viewBox="0 0 425 539">
  <defs>
    <filter id="Path_3194" x="38.73" y="127.653" width="151.93" height="104.247" filterUnits="userSpaceOnUse">
      <feOffset dy="10" input="SourceAlpha"/>
      <feGaussianBlur stdDeviation="3" result="blur"/>
      <feFlood flood-color="#1864b1" flood-opacity="0.161"/>
      <feComposite operator="in" in2="blur"/>
      <feComposite in="SourceGraphic"/>
    </filter>
  </defs>
  <g id="Group_3232" data-name="Group 3232" transform="translate(-140 -141)">
    <g id="Group_3177" data-name="Group 3177" transform="translate(0 -2175)">
      <g id="Group_3176" data-name="Group 3176" transform="translate(140 2316)">
        <rect id="Rectangle_3954" data-name="Rectangle 3954" width="425" height="539" fill="#fafbfc"/>
        <rect id="Rectangle_3956" data-name="Rectangle 3956" width="425" height="539" fill="#fafbfc"/>
      </g>
      <rect id="Rectangle_3955" data-name="Rectangle 3955" width="425" height="225" transform="translate(140 2322)" fill="#fff"/>
    </g>
    <rect id="Rectangle_3958" data-name="Rectangle 3958" width="425" height="6" transform="translate(140 141)" fill="#2682de"/>
    <rect id="Rectangle_3971" data-name="Rectangle 3971" width="182" height="45" rx="2" transform="translate(363 615)" fill="#2682de"/>
    <text id="Add_to_Basket" data-name="Add to Basket" transform="translate(454 643)" fill="#fcfdff" font-size="16" font-family="ProximaNova-Medium, Proxima Nova" font-weight="500"><tspan x="-49.728" y="0">Add to Basket</tspan></text>
    <g id="Rectangle_3972" data-name="Rectangle 3972" transform="translate(160 615)" fill="#fff" stroke="#4b9ade" stroke-width="2">
      <rect width="182" height="45" rx="2" stroke="none"/>
      <rect x="1" y="1" width="180" height="43" rx="1" fill="none"/>
    </g>
    <path id="Path_3228" data-name="Path 3228" d="M-45.832,0h7.168V-1.408h-5.568V-4.736h5.456V-6.144h-5.456v-3.12h5.568v-1.408h-7.168Zm14.08,0h1.632l-2.912-3.968,2.736-3.76h-1.632l-1.984,2.784-2-2.784h-1.632l2.72,3.76L-37.72,0h1.632l2.176-3.008ZM-27.4,2.944V-1.12A3.083,3.083,0,0,0-24.872.192c2.016,0,3.44-1.536,3.44-4.064s-1.424-4.048-3.44-4.048a3.149,3.149,0,0,0-2.528,1.3v-1.1h-1.44V2.944Zm4.464-6.816c0,1.616-.88,2.784-2.32,2.784A2.689,2.689,0,0,1-27.4-2.224V-5.5A2.647,2.647,0,0,1-25.256-6.64C-23.816-6.64-22.936-5.472-22.936-3.872ZM-16.184.192a3.831,3.831,0,0,0,3.9-4.064,3.827,3.827,0,0,0-3.9-4.048,3.836,3.836,0,0,0-3.9,4.048A3.84,3.84,0,0,0-16.184.192Zm0-1.28a2.517,2.517,0,0,1-2.4-2.784,2.512,2.512,0,0,1,2.4-2.768,2.5,2.5,0,0,1,2.4,2.768A2.508,2.508,0,0,1-16.184-1.088ZM-10.456,0h1.44V-5.376A2.73,2.73,0,0,1-6.984-6.5a2.266,2.266,0,0,1,.5.048V-7.9a3.283,3.283,0,0,0-2.528,1.36V-7.728h-1.44ZM-2.92.192a2.051,2.051,0,0,0,1.5-.5l-.368-1.088a1.108,1.108,0,0,1-.784.3c-.5,0-.752-.4-.752-.944V-6.464h1.568V-7.728H-3.32V-9.84H-4.76v2.112H-6.04v1.264h1.28v4.752A1.681,1.681,0,0,0-2.92.192Zm17.232-5.52a5.248,5.248,0,0,0-5.376-5.52A5.248,5.248,0,0,0,3.56-5.328,5.248,5.248,0,0,0,8.936.192a5.52,5.52,0,0,0,2.8-.72L12.712.544l1.1-.944-.944-1.04A5.62,5.62,0,0,0,14.312-5.328Zm-5.376,4.1c-2.288,0-3.728-1.76-3.728-4.1,0-2.352,1.44-4.1,3.728-4.1,2.256,0,3.728,1.744,3.728,4.1a4.478,4.478,0,0,1-.848,2.72L10.408-4.176l-1.12.944,1.424,1.568A3.738,3.738,0,0,1,8.936-1.232ZM21.432,0h1.44V-7.728h-1.44v5.552a2.793,2.793,0,0,1-2.144,1.088c-.992,0-1.632-.384-1.632-1.664V-7.728h-1.44v5.456A2.18,2.18,0,0,0,18.68.192a3.818,3.818,0,0,0,2.752-1.248Zm7.152.192a3.831,3.831,0,0,0,3.9-4.064,3.827,3.827,0,0,0-3.9-4.048,3.836,3.836,0,0,0-3.9,4.048A3.84,3.84,0,0,0,28.584.192Zm0-1.28a2.517,2.517,0,0,1-2.4-2.784,2.512,2.512,0,0,1,2.4-2.768,2.5,2.5,0,0,1,2.4,2.768A2.508,2.508,0,0,1,28.584-1.088ZM36.44.192a2.051,2.051,0,0,0,1.5-.5l-.368-1.088a1.108,1.108,0,0,1-.784.3c-.5,0-.752-.4-.752-.944V-6.464h1.568V-7.728H36.04V-9.84H34.6v2.112H33.32v1.264H34.6v4.752A1.681,1.681,0,0,0,36.44.192Zm2.288-4.064a3.865,3.865,0,0,0,4,4.064,4.347,4.347,0,0,0,3.1-1.152L45.16-1.9a3.285,3.285,0,0,1-2.288.912,2.534,2.534,0,0,1-2.624-2.4H46.36v-.352c0-2.368-1.44-4.176-3.76-4.176A3.886,3.886,0,0,0,38.728-3.872ZM42.6-6.736a2.286,2.286,0,0,1,2.352,2.3h-4.72A2.367,2.367,0,0,1,42.6-6.736Z" transform="translate(251 643)" fill="#2682de"/>
    <path id="Path_3226" data-name="Path 3226" d="M-79.758-2.842h3.36V-3.934h-3.36Zm10.71,1.232a1.72,1.72,0,0,1-1.3.546,2.152,2.152,0,0,1-.924-.252,2.381,2.381,0,0,0-1.064-.28,2.475,2.475,0,0,0-.728.112,2.122,2.122,0,0,0,1.022-1.764,2.774,2.774,0,0,0-.056-.5h1.652V-4.62h-2.086l-.252-.336a2.6,2.6,0,0,1-.742-1.694A1.707,1.707,0,0,1-71.68-8.316,1.833,1.833,0,0,1-70-7.21l1.12-.672a3.112,3.112,0,0,0-2.94-1.6,3.042,3.042,0,0,0-3.22,2.8A3.081,3.081,0,0,0-74.1-4.634l.014.014h-1.33v.868h1.932a1.7,1.7,0,0,1,.2.812c0,.8-.658,1.54-1.764,2.03L-74.564.1a3.828,3.828,0,0,1,1.638-.546,2.519,2.519,0,0,1,1.106.28,3.023,3.023,0,0,0,1.414.35A2.594,2.594,0,0,0-68.474-.49ZM-67.312,0h6.58V-1.232h-4.354c2.562-1.974,4.312-3.612,4.312-5.432,0-1.862-1.582-2.814-3.262-2.814a4.269,4.269,0,0,0-3.346,1.484l.826.91a3.205,3.205,0,0,1,2.534-1.148A1.62,1.62,0,0,1-62.2-6.664c0,1.47-1.61,2.87-5.11,5.558Zm8.554,0h6.58V-1.232h-4.354c2.562-1.974,4.312-3.612,4.312-5.432,0-1.862-1.582-2.814-3.262-2.814a4.269,4.269,0,0,0-3.346,1.484l.826.91a3.205,3.205,0,0,1,2.534-1.148,1.62,1.62,0,0,1,1.82,1.568c0,1.47-1.61,2.87-5.11,5.558Zm9.212,1.82A2.832,2.832,0,0,0-48.314-.434a1.037,1.037,0,0,0-.98-1.162.848.848,0,0,0-.854.854.755.755,0,0,0,.756.8c.07,0,.182-.028.21-.028a2.177,2.177,0,0,1-.952,1.3Zm2.87-6.482c0,2.31,1.064,4.83,3.654,4.83s3.654-2.52,3.654-4.83-1.064-4.816-3.654-4.816S-46.676-6.972-46.676-4.662Zm5.88,0c0,1.82-.574,3.584-2.226,3.584s-2.226-1.764-2.226-3.584.574-3.57,2.226-3.57S-40.8-6.482-40.8-4.662Zm3,0c0,2.31,1.064,4.83,3.654,4.83s3.654-2.52,3.654-4.83-1.064-4.816-3.654-4.816S-37.8-6.972-37.8-4.662Zm5.88,0c0,1.82-.574,3.584-2.226,3.584s-2.226-1.764-2.226-3.584.574-3.57,2.226-3.57S-31.92-6.482-31.92-4.662Zm3,0c0,2.31,1.064,4.83,3.654,4.83s3.654-2.52,3.654-4.83S-22.68-9.478-25.27-9.478-28.924-6.972-28.924-4.662Zm5.88,0c0,1.82-.574,3.584-2.226,3.584S-27.5-2.842-27.5-4.662s.574-3.57,2.226-3.57S-23.044-6.482-23.044-4.662ZM-20.3-.728a.885.885,0,0,0,.868.882.9.9,0,0,0,.882-.882.885.885,0,0,0-.882-.868A.872.872,0,0,0-20.3-.728Zm3.472-3.934c0,2.31,1.064,4.83,3.654,4.83s3.654-2.52,3.654-4.83-1.064-4.816-3.654-4.816S-16.828-6.972-16.828-4.662Zm5.88,0c0,1.82-.574,3.584-2.226,3.584S-15.4-2.842-15.4-4.662s.574-3.57,2.226-3.57S-10.948-6.482-10.948-4.662Zm3,0c0,2.31,1.064,4.83,3.654,4.83s3.654-2.52,3.654-4.83S-1.708-9.478-4.3-9.478-7.952-6.972-7.952-4.662Zm5.88,0c0,1.82-.574,3.584-2.226,3.584S-6.524-2.842-6.524-4.662s.574-3.57,2.226-3.57S-2.072-6.482-2.072-4.662Z" transform="translate(544 557)" fill="#415a73"/>
    <path id="Path_3227" data-name="Path 3227" d="M-68.936-1.61a1.72,1.72,0,0,1-1.3.546,2.152,2.152,0,0,1-.924-.252,2.381,2.381,0,0,0-1.064-.28,2.475,2.475,0,0,0-.728.112,2.122,2.122,0,0,0,1.022-1.764,2.774,2.774,0,0,0-.056-.5h1.652V-4.62h-2.086l-.252-.336a2.6,2.6,0,0,1-.742-1.694,1.707,1.707,0,0,1,1.848-1.666,1.833,1.833,0,0,1,1.68,1.106l1.12-.672a3.112,3.112,0,0,0-2.94-1.6,3.042,3.042,0,0,0-3.22,2.8,3.081,3.081,0,0,0,.938,2.044l.014.014h-1.33v.868h1.932a1.7,1.7,0,0,1,.2.812c0,.8-.658,1.54-1.764,2.03L-74.452.1a3.828,3.828,0,0,1,1.638-.546,2.519,2.519,0,0,1,1.106.28,3.023,3.023,0,0,0,1.414.35A2.594,2.594,0,0,0-68.362-.49Zm1.666-.77C-67.27-.742-65.688.168-63.8.168c1.862,0,3.444-.924,3.444-2.548A2.74,2.74,0,0,0-62.51-4.816a2.436,2.436,0,0,0,2.016-2.226c0-1.694-1.722-2.436-3.3-2.436-1.624,0-3.318.742-3.318,2.436a2.422,2.422,0,0,0,2,2.226A2.74,2.74,0,0,0-67.27-2.38Zm5.362-4.452c0,.994-1.316,1.358-1.89,1.456-.574-.1-1.9-.462-1.9-1.456,0-.882.812-1.4,1.9-1.4C-62.748-8.232-61.908-7.714-61.908-6.832Zm.154,4.284c0,.91-.966,1.47-2.044,1.47-1.12,0-2.058-.56-2.058-1.47,0-1.092,1.47-1.568,2.058-1.638C-63.238-4.116-61.754-3.64-61.754-2.548Zm2.982-2.114c0,2.31,1.064,4.83,3.654,4.83s3.654-2.52,3.654-4.83-1.064-4.816-3.654-4.816S-58.772-6.972-58.772-4.662Zm5.88,0c0,1.82-.574,3.584-2.226,3.584s-2.226-1.764-2.226-3.584.574-3.57,2.226-3.57S-52.892-6.482-52.892-4.662Zm3.346,6.482A2.832,2.832,0,0,0-48.314-.434a1.037,1.037,0,0,0-.98-1.162.848.848,0,0,0-.854.854.755.755,0,0,0,.756.8c.07,0,.182-.028.21-.028a2.177,2.177,0,0,1-.952,1.3Zm2.87-6.482c0,2.31,1.064,4.83,3.654,4.83s3.654-2.52,3.654-4.83-1.064-4.816-3.654-4.816S-46.676-6.972-46.676-4.662Zm5.88,0c0,1.82-.574,3.584-2.226,3.584s-2.226-1.764-2.226-3.584.574-3.57,2.226-3.57S-40.8-6.482-40.8-4.662Zm3,0c0,2.31,1.064,4.83,3.654,4.83s3.654-2.52,3.654-4.83-1.064-4.816-3.654-4.816S-37.8-6.972-37.8-4.662Zm5.88,0c0,1.82-.574,3.584-2.226,3.584s-2.226-1.764-2.226-3.584.574-3.57,2.226-3.57S-31.92-6.482-31.92-4.662Zm3,0c0,2.31,1.064,4.83,3.654,4.83s3.654-2.52,3.654-4.83S-22.68-9.478-25.27-9.478-28.924-6.972-28.924-4.662Zm5.88,0c0,1.82-.574,3.584-2.226,3.584S-27.5-2.842-27.5-4.662s.574-3.57,2.226-3.57S-23.044-6.482-23.044-4.662ZM-20.3-.728a.885.885,0,0,0,.868.882.9.9,0,0,0,.882-.882.885.885,0,0,0-.882-.868A.872.872,0,0,0-20.3-.728Zm3.472-3.934c0,2.31,1.064,4.83,3.654,4.83s3.654-2.52,3.654-4.83-1.064-4.816-3.654-4.816S-16.828-6.972-16.828-4.662Zm5.88,0c0,1.82-.574,3.584-2.226,3.584S-15.4-2.842-15.4-4.662s.574-3.57,2.226-3.57S-10.948-6.482-10.948-4.662Zm3,0c0,2.31,1.064,4.83,3.654,4.83s3.654-2.52,3.654-4.83S-1.708-9.478-4.3-9.478-7.952-6.972-7.952-4.662Zm5.88,0c0,1.82-.574,3.584-2.226,3.584S-6.524-2.842-6.524-4.662s.574-3.57,2.226-3.57S-2.072-6.482-2.072-4.662Z" transform="translate(544 579)" fill="#e33d5a"/>
    <line id="Line_2200" data-name="Line 2200" x2="384.5" transform="translate(160.5 523.5)" fill="none" stroke="#ebf2fa" stroke-width="1"/>
    <path id="Path_3189" data-name="Path 3189" d="M-10685.937-24157.168l4.361,4.092,6.94-8.346" transform="translate(11219.512 24628.699)" fill="none" stroke="#13a6b9" stroke-width="2"/>
    <path id="Path_3223" data-name="Path 3223" d="M.462-1.316A4.778,4.778,0,0,0,4.144.168c2.52,0,3.528-1.358,3.528-2.814,0-1.988-1.778-2.464-3.3-2.87-1.162-.294-2.17-.56-2.17-1.4,0-.784.714-1.316,1.75-1.316A3.643,3.643,0,0,1,6.65-7.14l.812-1.036a4.578,4.578,0,0,0-3.4-1.3c-1.946,0-3.3,1.12-3.3,2.66,0,1.9,1.736,2.338,3.234,2.73C5.18-3.78,6.244-3.5,6.244-2.52c0,.672-.532,1.442-2.044,1.442A3.937,3.937,0,0,1,1.26-2.394ZM14.168,0h1.26V-6.762h-1.26V-1.9a2.444,2.444,0,0,1-1.876.952c-.868,0-1.428-.336-1.428-1.456V-6.762H9.6v4.774A1.908,1.908,0,0,0,11.76.168,3.341,3.341,0,0,0,14.168-.924ZM25.984,0h1.26V-4.886c0-1.358-.672-2.044-1.918-2.044a2.837,2.837,0,0,0-2.282,1.26A1.747,1.747,0,0,0,21.21-6.93a2.927,2.927,0,0,0-2.184,1.12v-.952h-1.26V0h1.26V-4.83a2.209,2.209,0,0,1,1.652-.98c.854,0,1.19.518,1.19,1.3V0h1.26V-4.844a2.177,2.177,0,0,1,1.68-.966c.826,0,1.176.518,1.176,1.3ZM37.8,0h1.26V-4.886c0-1.358-.672-2.044-1.918-2.044A2.837,2.837,0,0,0,34.86-5.67a1.747,1.747,0,0,0-1.834-1.26,2.927,2.927,0,0,0-2.184,1.12v-.952h-1.26V0h1.26V-4.83a2.209,2.209,0,0,1,1.652-.98c.854,0,1.19.518,1.19,1.3V0h1.26V-4.844a2.177,2.177,0,0,1,1.68-.966c.826,0,1.176.518,1.176,1.3Zm7.77,0h1.26V-4.564c0-1.722-1.246-2.366-2.716-2.366a3.8,3.8,0,0,0-2.772,1.106l.546.868a2.767,2.767,0,0,1,2.03-.9c.966,0,1.652.5,1.652,1.344v1.12a2.82,2.82,0,0,0-2.212-.9,2.183,2.183,0,0,0-2.352,2.212A2.247,2.247,0,0,0,43.358.168a2.9,2.9,0,0,0,2.212-.91Zm0-1.484a2.142,2.142,0,0,1-1.736.77A1.4,1.4,0,0,1,42.28-2.058,1.4,1.4,0,0,1,43.834-3.4a2.142,2.142,0,0,1,1.736.77ZM49.182,0h1.26V-4.7a2.389,2.389,0,0,1,1.778-.98,1.983,1.983,0,0,1,.434.042V-6.916a2.873,2.873,0,0,0-2.212,1.19V-6.762h-1.26ZM54.11,1.512l-.2,1.134a3.642,3.642,0,0,0,.784.1,2.137,2.137,0,0,0,2.156-1.456l3.332-8.05H58.828L56.714-1.456,54.6-6.762H53.256L56.042.07l-.392.9a.934.934,0,0,1-.98.658A1.536,1.536,0,0,1,54.11,1.512Z" transform="translate(161 557)" fill="#49628c"/>
    <path id="Path_3224" data-name="Path 3224" d="M.462-1.316A4.778,4.778,0,0,0,4.144.168c2.52,0,3.528-1.358,3.528-2.814,0-1.988-1.778-2.464-3.3-2.87-1.162-.294-2.17-.56-2.17-1.4,0-.784.714-1.316,1.75-1.316A3.643,3.643,0,0,1,6.65-7.14l.812-1.036a4.578,4.578,0,0,0-3.4-1.3c-1.946,0-3.3,1.12-3.3,2.66,0,1.9,1.736,2.338,3.234,2.73C5.18-3.78,6.244-3.5,6.244-2.52c0,.672-.532,1.442-2.044,1.442A3.937,3.937,0,0,1,1.26-2.394ZM13.72,0h1.26V-4.564c0-1.722-1.246-2.366-2.716-2.366A3.8,3.8,0,0,0,9.492-5.824l.546.868a2.767,2.767,0,0,1,2.03-.9c.966,0,1.652.5,1.652,1.344v1.12a2.82,2.82,0,0,0-2.212-.9A2.183,2.183,0,0,0,9.156-2.072,2.247,2.247,0,0,0,11.508.168a2.9,2.9,0,0,0,2.212-.91Zm0-1.484a2.142,2.142,0,0,1-1.736.77A1.4,1.4,0,0,1,10.43-2.058,1.4,1.4,0,0,1,11.984-3.4a2.142,2.142,0,0,1,1.736.77ZM19.068,0h1.358l2.786-6.762H21.854L19.74-1.456,17.626-6.762H16.282ZM25.13-7.9a.8.8,0,0,0,.812-.8.813.813,0,0,0-.812-.812.822.822,0,0,0-.812.812A.81.81,0,0,0,25.13-7.9ZM24.514,0h1.26V-6.762h-1.26ZM32.62,0h1.26V-4.746A1.943,1.943,0,0,0,31.71-6.93a3.224,3.224,0,0,0-2.394,1.12v-.952h-1.26V0h1.26V-4.83a2.416,2.416,0,0,1,1.862-.98c.868,0,1.442.364,1.442,1.484Zm3.486,1.736a3.635,3.635,0,0,0,2.772,1.008c1.666,0,3.36-.686,3.36-3.01v-6.5h-1.26v.98A2.76,2.76,0,0,0,38.752-6.93c-1.75,0-3.01,1.316-3.01,3.486,0,2.212,1.26,3.5,3.01,3.5a2.85,2.85,0,0,0,2.226-1.162v.882a1.868,1.868,0,0,1-2.1,1.932,2.638,2.638,0,0,1-2.17-.9Zm4.872-3.808A2.37,2.37,0,0,1,39.1-1.064a2.1,2.1,0,0,1-2.044-2.38A2.1,2.1,0,0,1,39.1-5.81a2.357,2.357,0,0,1,1.876.994Zm2.954,1.19A3.847,3.847,0,0,0,46.746.168c1.778,0,2.73-.91,2.73-2.072,0-1.554-1.4-1.876-2.576-2.142-.84-.2-1.568-.392-1.568-.98,0-.546.532-.882,1.386-.882a2.636,2.636,0,0,1,2,.826l.56-.882A3.619,3.619,0,0,0,46.7-6.93c-1.652,0-2.576.924-2.576,2,0,1.456,1.344,1.764,2.492,2.03.868.2,1.638.42,1.638,1.092,0,.574-.5.966-1.456.966a3.276,3.276,0,0,1-2.268-.966Zm7.2-5.1A.882.882,0,0,0,52-5.11a.894.894,0,0,0,.882-.868A.9.9,0,0,0,52-6.86.885.885,0,0,0,51.128-5.978Zm0,5.25A.885.885,0,0,0,52,.154a.9.9,0,0,0,.882-.882A.885.885,0,0,0,52-1.6.872.872,0,0,0,51.128-.728Z" transform="translate(363 557)" fill="#2a4e72"/>
    <path id="Path_3225" data-name="Path 3225" d="M.462-1.316A4.778,4.778,0,0,0,4.144.168c2.52,0,3.528-1.358,3.528-2.814,0-1.988-1.778-2.464-3.3-2.87-1.162-.294-2.17-.56-2.17-1.4,0-.784.714-1.316,1.75-1.316A3.643,3.643,0,0,1,6.65-7.14l.812-1.036a4.578,4.578,0,0,0-3.4-1.3c-1.946,0-3.3,1.12-3.3,2.66,0,1.9,1.736,2.338,3.234,2.73C5.18-3.78,6.244-3.5,6.244-2.52c0,.672-.532,1.442-2.044,1.442A3.937,3.937,0,0,1,1.26-2.394ZM14.112,0h1.26V-6.762h-1.26V-1.9a2.444,2.444,0,0,1-1.876.952c-.868,0-1.428-.336-1.428-1.456V-6.762H9.548v4.774A1.908,1.908,0,0,0,11.7.168,3.341,3.341,0,0,0,14.112-.924Zm3.542,0h1.26V-.966A2.776,2.776,0,0,0,21.126.168c1.75,0,3.01-1.33,3.01-3.542,0-2.17-1.246-3.556-3.01-3.556a2.715,2.715,0,0,0-2.212,1.148V-9.338h-1.26Zm1.26-1.932V-4.8A2.328,2.328,0,0,1,20.79-5.81c1.26,0,2.044,1.022,2.044,2.436S22.05-.952,20.79-.952A2.3,2.3,0,0,1,18.914-1.932Zm8.974,2.1A1.794,1.794,0,0,0,29.2-.266l-.322-.952a.969.969,0,0,1-.686.266c-.434,0-.658-.35-.658-.826V-5.656H28.91V-6.762H27.538V-8.61h-1.26v1.848h-1.12v1.106h1.12V-1.5A1.471,1.471,0,0,0,27.888.168Zm5.7,0A3.352,3.352,0,0,0,37-3.388,3.348,3.348,0,0,0,33.586-6.93,3.356,3.356,0,0,0,30.17-3.388,3.36,3.36,0,0,0,33.586.168Zm0-1.12a2.2,2.2,0,0,1-2.1-2.436,2.2,2.2,0,0,1,2.1-2.422,2.189,2.189,0,0,1,2.1,2.422A2.194,2.194,0,0,1,33.586-.952ZM40.74.168a1.794,1.794,0,0,0,1.316-.434l-.322-.952a.969.969,0,0,1-.686.266c-.434,0-.658-.35-.658-.826V-5.656h1.372V-6.762H40.39V-8.61H39.13v1.848H38.01v1.106h1.12V-1.5A1.471,1.471,0,0,0,40.74.168ZM47.614,0h1.26V-4.564c0-1.722-1.246-2.366-2.716-2.366a3.8,3.8,0,0,0-2.772,1.106l.546.868a2.767,2.767,0,0,1,2.03-.9c.966,0,1.652.5,1.652,1.344v1.12a2.82,2.82,0,0,0-2.212-.9A2.183,2.183,0,0,0,43.05-2.072,2.247,2.247,0,0,0,45.4.168a2.9,2.9,0,0,0,2.212-.91Zm0-1.484a2.142,2.142,0,0,1-1.736.77,1.4,1.4,0,0,1-1.554-1.344A1.4,1.4,0,0,1,45.878-3.4a2.142,2.142,0,0,1,1.736.77ZM51.17,0h1.26V-9.338H51.17Zm3.318-5.978a.882.882,0,0,0,.868.868.894.894,0,0,0,.882-.868.9.9,0,0,0-.882-.882A.885.885,0,0,0,54.488-5.978Zm0,5.25a.885.885,0,0,0,.868.882.9.9,0,0,0,.882-.882.885.885,0,0,0-.882-.868A.872.872,0,0,0,54.488-.728Z" transform="translate(363 579)" fill="#2a4e72"/>
    <path id="Path_3222" data-name="Path 3222" d="M1.036,0H4.368A4.541,4.541,0,0,0,9.212-4.662,4.559,4.559,0,0,0,4.368-9.338H1.036Zm1.4-1.232V-8.106H4.368a3.227,3.227,0,0,1,3.4,3.444,3.254,3.254,0,0,1-3.4,3.43Zm8.358-2.156a3.381,3.381,0,0,0,3.5,3.556A3.8,3.8,0,0,0,17.01-.84l-.588-.826a2.875,2.875,0,0,1-2,.8,2.218,2.218,0,0,1-2.3-2.1h5.348v-.308c0-2.072-1.26-3.654-3.29-3.654A3.4,3.4,0,0,0,10.794-3.388Zm3.388-2.506A2,2,0,0,1,16.24-3.878H12.11A2.071,2.071,0,0,1,14.182-5.894ZM19.39,0h1.26V-9.338H19.39ZM23.6-7.9a.8.8,0,0,0,.812-.8.813.813,0,0,0-.812-.812.822.822,0,0,0-.812.812A.81.81,0,0,0,23.6-7.9ZM22.988,0h1.26V-6.762h-1.26Zm5.39,0h1.358l2.786-6.762H31.164L29.05-1.456,26.936-6.762H25.592ZM33.46-3.388A3.381,3.381,0,0,0,36.96.168,3.8,3.8,0,0,0,39.676-.84l-.588-.826a2.875,2.875,0,0,1-2,.8,2.218,2.218,0,0,1-2.3-2.1h5.348v-.308c0-2.072-1.26-3.654-3.29-3.654A3.4,3.4,0,0,0,33.46-3.388Zm3.388-2.506a2,2,0,0,1,2.058,2.016h-4.13A2.071,2.071,0,0,1,36.848-5.894ZM42.056,0h1.26V-4.7a2.389,2.389,0,0,1,1.778-.98,1.983,1.983,0,0,1,.434.042V-6.916a2.873,2.873,0,0,0-2.212,1.19V-6.762h-1.26Zm4.928,1.512-.2,1.134a3.642,3.642,0,0,0,.784.1,2.137,2.137,0,0,0,2.156-1.456l3.332-8.05H51.7L49.588-1.456,47.474-6.762H46.13L48.916.07l-.392.9a.934.934,0,0,1-.98.658A1.536,1.536,0,0,1,46.984,1.512Z" transform="translate(161 499)" fill="#648098"/>
    <path id="Path_3220" data-name="Path 3220" d="M.462-1.316A4.778,4.778,0,0,0,4.144.168c2.52,0,3.528-1.358,3.528-2.814,0-1.988-1.778-2.464-3.3-2.87-1.162-.294-2.17-.56-2.17-1.4,0-.784.714-1.316,1.75-1.316A3.643,3.643,0,0,1,6.65-7.14l.812-1.036a4.578,4.578,0,0,0-3.4-1.3c-1.946,0-3.3,1.12-3.3,2.66,0,1.9,1.736,2.338,3.234,2.73C5.18-3.78,6.244-3.5,6.244-2.52c0,.672-.532,1.442-2.044,1.442A3.937,3.937,0,0,1,1.26-2.394ZM14.168,0h1.26V-6.762h-1.26V-1.9a2.444,2.444,0,0,1-1.876.952c-.868,0-1.428-.336-1.428-1.456V-6.762H9.6v4.774A1.908,1.908,0,0,0,11.76.168,3.341,3.341,0,0,0,14.168-.924Zm4.858,2.576V-.98A2.7,2.7,0,0,0,21.238.168c1.764,0,3.01-1.344,3.01-3.556S23-6.93,21.238-6.93A2.756,2.756,0,0,0,19.026-5.8v-.966h-1.26V2.576Zm3.906-5.964c0,1.414-.77,2.436-2.03,2.436a2.353,2.353,0,0,1-1.876-.994v-2.87A2.316,2.316,0,0,1,20.9-5.81C22.162-5.81,22.932-4.788,22.932-3.388ZM27.44,2.576V-.98A2.7,2.7,0,0,0,29.652.168c1.764,0,3.01-1.344,3.01-3.556S31.416-6.93,29.652-6.93A2.756,2.756,0,0,0,27.44-5.8v-.966H26.18V2.576Zm3.906-5.964c0,1.414-.77,2.436-2.03,2.436a2.353,2.353,0,0,1-1.876-.994v-2.87a2.316,2.316,0,0,1,1.876-.994C30.576-5.81,31.346-4.788,31.346-3.388ZM34.594,0h1.26V-9.338h-1.26Zm4.214-7.9a.8.8,0,0,0,.812-.8.813.813,0,0,0-.812-.812A.822.822,0,0,0,38-8.694.81.81,0,0,0,38.808-7.9ZM38.192,0h1.26V-6.762h-1.26ZM41.37-3.388A3.381,3.381,0,0,0,44.87.168,3.8,3.8,0,0,0,47.586-.84L47-1.666a2.875,2.875,0,0,1-2,.8,2.218,2.218,0,0,1-2.3-2.1h5.348v-.308c0-2.072-1.26-3.654-3.29-3.654A3.4,3.4,0,0,0,41.37-3.388Zm3.388-2.506a2,2,0,0,1,2.058,2.016h-4.13A2.071,2.071,0,0,1,44.758-5.894ZM49.966,0h1.26V-4.7A2.389,2.389,0,0,1,53-5.684a1.983,1.983,0,0,1,.434.042V-6.916a2.873,2.873,0,0,0-2.212,1.19V-6.762h-1.26Z" transform="translate(161 457)" fill="#648098"/>
    <path id="Path_3221" data-name="Path 3221" d="M.462-1.316A4.778,4.778,0,0,0,4.144.168c2.52,0,3.528-1.358,3.528-2.814,0-1.988-1.778-2.464-3.3-2.87-1.162-.294-2.17-.56-2.17-1.4,0-.784.714-1.316,1.75-1.316A3.643,3.643,0,0,1,6.65-7.14l.812-1.036a4.578,4.578,0,0,0-3.4-1.3c-1.946,0-3.3,1.12-3.3,2.66,0,1.9,1.736,2.338,3.234,2.73C5.18-3.78,6.244-3.5,6.244-2.52c0,.672-.532,1.442-2.044,1.442A3.937,3.937,0,0,1,1.26-2.394ZM11.242.168a1.794,1.794,0,0,0,1.316-.434l-.322-.952a.969.969,0,0,1-.686.266c-.434,0-.658-.35-.658-.826V-5.656h1.372V-6.762H10.892V-8.61H9.632v1.848H8.512v1.106h1.12V-1.5A1.471,1.471,0,0,0,11.242.168ZM17,.168a3.352,3.352,0,0,0,3.416-3.556A3.348,3.348,0,0,0,17-6.93,3.356,3.356,0,0,0,13.58-3.388,3.36,3.36,0,0,0,17,.168Zm0-1.12a2.2,2.2,0,0,1-2.1-2.436A2.2,2.2,0,0,1,17-5.81a2.189,2.189,0,0,1,2.1,2.422A2.194,2.194,0,0,1,17-.952Zm4.928-2.436A3.376,3.376,0,0,0,25.368.168,2.954,2.954,0,0,0,27.9-1.022l-.84-.77a1.922,1.922,0,0,1-1.638.84A2.213,2.213,0,0,1,23.24-3.388,2.2,2.2,0,0,1,25.424-5.81a1.889,1.889,0,0,1,1.638.84l.84-.77a2.954,2.954,0,0,0-2.534-1.19A3.364,3.364,0,0,0,21.924-3.388ZM34.16,0h1.6l-2.94-3.7,2.912-3.066H34.146l-3.262,3.43V-9.338h-1.26V0h1.26V-1.876l1.022-1.036Z" transform="translate(161 478)" fill="#648098"/>
    <rect id="Rectangle_3973" data-name="Rectangle 3973" width="157" height="4" rx="2" transform="translate(363 472)" fill="#13a6b9"/>
    <rect id="Rectangle_3975" data-name="Rectangle 3975" width="182" height="4" rx="2" transform="translate(363 453)" fill="#6f99c4"/>
    <rect id="Rectangle_3976" data-name="Rectangle 3976" width="182" height="4" rx="2" transform="translate(363 493)" fill="#6f99c4"/>
    <rect id="Rectangle_3969" data-name="Rectangle 3969" width="425" height="266" transform="translate(140 147)" fill="#fff"/>
    <path id="Path_3219" data-name="Path 3219" d="M-12.875,0h.83V-1.69h.94v-.73h-.94V-6.67h-1.14l-2.86,4.29v.69h3.17Zm0-5.9v3.48h-2.34Zm3.33,7.17a1.93,1.93,0,0,0,.82-1.51A.679.679,0,0,0-9.355-1a.536.536,0,0,0-.53.54A.476.476,0,0,0-9.4.05a.464.464,0,0,0,.14-.02,1.493,1.493,0,0,1-.65.93Zm2.17-4.6c0,1.62.72,3.45,2.55,3.45s2.55-1.83,2.55-3.45S-3-6.77-4.825-6.77-7.375-4.96-7.375-3.33Zm4.25,0c0,1.33-.43,2.71-1.7,2.71s-1.7-1.38-1.7-2.71.43-2.7,1.7-2.7S-3.125-4.66-3.125-3.33Zm2.17,0c0,1.62.72,3.45,2.55,3.45s2.55-1.83,2.55-3.45-.73-3.44-2.55-3.44S-.955-4.96-.955-3.33Zm4.25,0c0,1.33-.43,2.71-1.7,2.71S-.105-2-.105-3.33s.43-2.7,1.7-2.7S3.3-4.66,3.3-3.33Zm2.17,0c0,1.62.72,3.45,2.55,3.45s2.55-1.83,2.55-3.45-.73-3.44-2.55-3.44S5.465-4.96,5.465-3.33Zm4.25,0c0,1.33-.43,2.71-1.7,2.71S6.315-2,6.315-3.33s.43-2.7,1.7-2.7S9.715-4.66,9.715-3.33Zm4.44.22h1.92v-.52h-1.92V-5.7h-.57v2.07h-1.92v.52h1.92V-.98h.57Z" transform="translate(527.328 398)" fill="#8a9cb4"/>
    <path id="Path_3193" data-name="Path 3193" d="M20826.914-9391.819l130.559,81.029,129.365,17.14h97.988" transform="translate(-20638.129 9662.172)" fill="none" stroke="#91afcc" stroke-width="4"/>
    <path id="Path_3211" data-name="Path 3211" d="M4.72-1.01a1.281,1.281,0,0,1-.95.4A1.5,1.5,0,0,1,3.08-.8a1.707,1.707,0,0,0-.79-.22,1.662,1.662,0,0,0-.52.09,1.6,1.6,0,0,0,.76-1.32,1.442,1.442,0,0,0-.06-.43H3.68v-.54H2.18c-.07-.1-.15-.19-.22-.28a1.93,1.93,0,0,1-.59-1.29A1.32,1.32,0,0,1,2.8-6.07a1.393,1.393,0,0,1,1.27.82l.67-.4A2.177,2.177,0,0,0,2.72-6.77,2.121,2.121,0,0,0,.48-4.8a2.216,2.216,0,0,0,.7,1.5c.02.03.05.05.07.08H.19v.54H1.64a1.3,1.3,0,0,1,.15.6c0,.6-.48,1.15-1.33,1.53l.3.62a2.8,2.8,0,0,1,1.18-.4,1.689,1.689,0,0,1,.81.22,2,2,0,0,0,.98.24A1.883,1.883,0,0,0,5.08-.34Z" transform="translate(160.316 256.32)" fill="#d8dee6"/>
    <path id="Path_3212" data-name="Path 3212" d="M4.72-1.01a1.281,1.281,0,0,1-.95.4A1.5,1.5,0,0,1,3.08-.8a1.707,1.707,0,0,0-.79-.22,1.662,1.662,0,0,0-.52.09,1.6,1.6,0,0,0,.76-1.32,1.442,1.442,0,0,0-.06-.43H3.68v-.54H2.18c-.07-.1-.15-.19-.22-.28a1.93,1.93,0,0,1-.59-1.29A1.32,1.32,0,0,1,2.8-6.07a1.393,1.393,0,0,1,1.27.82l.67-.4A2.177,2.177,0,0,0,2.72-6.77,2.121,2.121,0,0,0,.48-4.8a2.216,2.216,0,0,0,.7,1.5c.02.03.05.05.07.08H.19v.54H1.64a1.3,1.3,0,0,1,.15.6c0,.6-.48,1.15-1.33,1.53l.3.62a2.8,2.8,0,0,1,1.18-.4,1.689,1.689,0,0,1,.81.22,2,2,0,0,0,.98.24A1.883,1.883,0,0,0,5.08-.34Z" transform="translate(160.316 298.32)" fill="#d8dee6"/>
    <path id="Path_3213" data-name="Path 3213" d="M4.72-1.01a1.281,1.281,0,0,1-.95.4A1.5,1.5,0,0,1,3.08-.8a1.707,1.707,0,0,0-.79-.22,1.662,1.662,0,0,0-.52.09,1.6,1.6,0,0,0,.76-1.32,1.442,1.442,0,0,0-.06-.43H3.68v-.54H2.18c-.07-.1-.15-.19-.22-.28a1.93,1.93,0,0,1-.59-1.29A1.32,1.32,0,0,1,2.8-6.07a1.393,1.393,0,0,1,1.27.82l.67-.4A2.177,2.177,0,0,0,2.72-6.77,2.121,2.121,0,0,0,.48-4.8a2.216,2.216,0,0,0,.7,1.5c.02.03.05.05.07.08H.19v.54H1.64a1.3,1.3,0,0,1,.15.6c0,.6-.48,1.15-1.33,1.53l.3.62a2.8,2.8,0,0,1,1.18-.4,1.689,1.689,0,0,1,.81.22,2,2,0,0,0,.98.24A1.883,1.883,0,0,0,5.08-.34Z" transform="translate(160.316 340.32)" fill="#d8dee6"/>
    <path id="Path_3214" data-name="Path 3214" d="M4.72-1.01a1.281,1.281,0,0,1-.95.4A1.5,1.5,0,0,1,3.08-.8a1.707,1.707,0,0,0-.79-.22,1.662,1.662,0,0,0-.52.09,1.6,1.6,0,0,0,.76-1.32,1.442,1.442,0,0,0-.06-.43H3.68v-.54H2.18c-.07-.1-.15-.19-.22-.28a1.93,1.93,0,0,1-.59-1.29A1.32,1.32,0,0,1,2.8-6.07a1.393,1.393,0,0,1,1.27.82l.67-.4A2.177,2.177,0,0,0,2.72-6.77,2.121,2.121,0,0,0,.48-4.8a2.216,2.216,0,0,0,.7,1.5c.02.03.05.05.07.08H.19v.54H1.64a1.3,1.3,0,0,1,.15.6c0,.6-.48,1.15-1.33,1.53l.3.62a2.8,2.8,0,0,1,1.18-.4,1.689,1.689,0,0,1,.81.22,2,2,0,0,0,.98.24A1.883,1.883,0,0,0,5.08-.34Z" transform="translate(160.316 382.32)" fill="#d8dee6"/>
    <path id="Path_3191" data-name="Path 3191" d="M20914.447-9334.817l-46.486-32.435-39.865-24.794v109.678h86.352Z" transform="translate(-20638.152 9662.176)" fill="#d7e7f4"/>
    <path id="Path_3192" data-name="Path 3192" d="M20872.32-9309.678l-44.225-24.368v52.881l44.225.123Z" transform="translate(-20551.979 9660.973)" fill="#bdefe8"/>
    <g id="Group_3185" data-name="Group 3185" transform="translate(320.184 253.053)">
      <line id="Line_2032" data-name="Line 2032" y2="3.629" transform="translate(0 0)" fill="none" stroke="#e1e8f0" stroke-width="1"/>
      <line id="Line_2032-2" data-name="Line 2032" y2="3.629" transform="translate(0 6.654)" fill="none" stroke="#e1e8f0" stroke-width="1"/>
      <line id="Line_2032-3" data-name="Line 2032" y2="4.234" transform="translate(0 12.702)" fill="none" stroke="#e1e8f0" stroke-width="1"/>
      <line id="Line_2032-4" data-name="Line 2032" y2="3.629" transform="translate(0 19.356)" fill="none" stroke="#e1e8f0" stroke-width="1"/>
      <line id="Line_2032-5" data-name="Line 2032" y2="4.234" transform="translate(0 25.405)" fill="none" stroke="#e1e8f0" stroke-width="1"/>
      <line id="Line_2032-6" data-name="Line 2032" y2="4.234" transform="translate(0 32.058)" fill="none" stroke="#e1e8f0" stroke-width="1"/>
      <line id="Line_2032-7" data-name="Line 2032" y2="3.629" transform="translate(0 38.712)" fill="none" stroke="#e1e8f0" stroke-width="1"/>
      <line id="Line_2032-8" data-name="Line 2032" y2="4.234" transform="translate(0 44.761)" fill="none" stroke="#e1e8f0" stroke-width="1"/>
      <line id="Line_2032-9" data-name="Line 2032" y2="4.234" transform="translate(0 51.414)" fill="none" stroke="#e1e8f0" stroke-width="1"/>
      <line id="Line_2032-10" data-name="Line 2032" y2="3.629" transform="translate(0 58.068)" fill="none" stroke="#e1e8f0" stroke-width="1"/>
      <line id="Line_2032-11" data-name="Line 2032" y2="4.234" transform="translate(0 64.117)" fill="none" stroke="#e1e8f0" stroke-width="1"/>
      <line id="Line_2032-12" data-name="Line 2032" y2="4.234" transform="translate(0 70.77)" fill="none" stroke="#e1e8f0" stroke-width="1"/>
      <line id="Line_2032-13" data-name="Line 2032" y2="3.629" transform="translate(0 77.424)" fill="none" stroke="#e1e8f0" stroke-width="1"/>
      <line id="Line_2032-14" data-name="Line 2032" y2="4.234" transform="translate(0 83.473)" fill="none" stroke="#e1e8f0" stroke-width="1"/>
      <line id="Line_2032-15" data-name="Line 2032" y2="3.629" transform="translate(0 90.126)" fill="none" stroke="#e1e8f0" stroke-width="1"/>
      <line id="Line_2032-16" data-name="Line 2032" y2="3.629" transform="translate(0 96.78)" fill="none" stroke="#e1e8f0" stroke-width="1"/>
      <line id="Line_2032-17" data-name="Line 2032" y2="4.234" transform="translate(0 102.829)" fill="none" stroke="#e1e8f0" stroke-width="1"/>
      <line id="Line_2032-18" data-name="Line 2032" y2="3.629" transform="translate(0 109.482)" fill="none" stroke="#e1e8f0" stroke-width="1"/>
      <line id="Line_2032-19" data-name="Line 2032" y2="3.629" transform="translate(0 116.136)" fill="none" stroke="#e1e8f0" stroke-width="1"/>
      <line id="Line_2032-20" data-name="Line 2032" y2="4.234" transform="translate(0 122.185)" fill="none" stroke="#e1e8f0" stroke-width="1"/>
    </g>
    <line id="Line_2204" data-name="Line 2204" x2="357.632" transform="translate(189.487 337.055)" fill="none" stroke="#ebf2fa" stroke-width="1"/>
    <path id="Path_3215" data-name="Path 3215" d="M-2.55-3.33C-2.55-1.71-1.83.12,0,.12S2.55-1.71,2.55-3.33,1.82-6.77,0-6.77-2.55-4.96-2.55-3.33Zm4.25,0C1.7-2,1.27-.62,0-.62S-1.7-2-1.7-3.33s.43-2.7,1.7-2.7S1.7-4.66,1.7-3.33Z" transform="translate(189.248 398)" fill="#8a9cb4"/>
    <path id="Path_3216" data-name="Path 3216" d="M-10.845,0h.83V-6.67h-.73l-1.67,1.72.5.51,1.07-1.13Zm2.85,1.27a1.93,1.93,0,0,0,.82-1.51A.679.679,0,0,0-7.8-1a.536.536,0,0,0-.53.54.476.476,0,0,0,.48.51.464.464,0,0,0,.14-.02,1.493,1.493,0,0,1-.65.93Zm2.17-4.6c0,1.62.72,3.45,2.55,3.45s2.55-1.83,2.55-3.45-.73-3.44-2.55-3.44S-5.825-4.96-5.825-3.33Zm4.25,0c0,1.33-.43,2.71-1.7,2.71s-1.7-1.38-1.7-2.71.43-2.7,1.7-2.7S-1.575-4.66-1.575-3.33Zm2.17,0c0,1.62.72,3.45,2.55,3.45s2.55-1.83,2.55-3.45-.73-3.44-2.55-3.44S.6-4.96.6-3.33Zm4.25,0c0,1.33-.43,2.71-1.7,2.71S1.445-2,1.445-3.33s.43-2.7,1.7-2.7S4.845-4.66,4.845-3.33Zm2.17,0c0,1.62.72,3.45,2.55,3.45s2.55-1.83,2.55-3.45-.73-3.44-2.55-3.44S7.015-4.96,7.015-3.33Zm4.25,0c0,1.33-.43,2.71-1.7,2.71S7.865-2,7.865-3.33s.43-2.7,1.7-2.7S11.265-4.66,11.265-3.33Z" transform="translate(274.429 398)" fill="#8a9cb4"/>
    <path id="Path_3217" data-name="Path 3217" d="M-13.33,0h4.58V-.74h-3.27c1.86-1.47,3.24-2.71,3.24-4.07a2.03,2.03,0,0,0-2.24-1.96,2.889,2.889,0,0,0-2.32,1.05l.51.53a2.23,2.23,0,0,1,1.81-.84A1.247,1.247,0,0,1-9.63-4.81c0,1.15-1.3,2.26-3.7,4.15Zm6.58,1.27A1.93,1.93,0,0,0-5.93-.24.679.679,0,0,0-6.56-1a.536.536,0,0,0-.53.54.476.476,0,0,0,.48.51A.464.464,0,0,0-6.47.03a1.493,1.493,0,0,1-.65.93Zm2.17-4.6c0,1.62.72,3.45,2.55,3.45S.52-1.71.52-3.33-.21-6.77-2.03-6.77-4.58-4.96-4.58-3.33Zm4.25,0C-.33-2-.76-.62-2.03-.62S-3.73-2-3.73-3.33s.43-2.7,1.7-2.7S-.33-4.66-.33-3.33Zm2.17,0c0,1.62.72,3.45,2.55,3.45S6.94-1.71,6.94-3.33,6.21-6.77,4.39-6.77,1.84-4.96,1.84-3.33Zm4.25,0C6.09-2,5.66-.62,4.39-.62S2.69-2,2.69-3.33s.43-2.7,1.7-2.7S6.09-4.66,6.09-3.33Zm2.17,0c0,1.62.72,3.45,2.55,3.45s2.55-1.83,2.55-3.45-.73-3.44-2.55-3.44S8.26-4.96,8.26-3.33Zm4.25,0c0,1.33-.43,2.71-1.7,2.71S9.11-2,9.11-3.33s.43-2.7,1.7-2.7S12.51-4.66,12.51-3.33Z" transform="translate(359.431 398)" fill="#8a9cb4"/>
    <path id="Path_3218" data-name="Path 3218" d="M-13.425-.98a2.813,2.813,0,0,0,2.37,1.1C-9.585.12-8.7-.69-8.7-1.8a1.677,1.677,0,0,0-1.54-1.64A1.624,1.624,0,0,0-8.8-4.99c0-1.13-.98-1.78-2.26-1.78a2.89,2.89,0,0,0-2.28,1.03l.46.52a2.26,2.26,0,0,1,1.76-.81c.81,0,1.49.4,1.49,1.14,0,.77-.71,1.1-1.55,1.1-.27,0-.58,0-.69-.01v.76c.1-.01.41-.01.69-.01.98,0,1.66.35,1.66,1.18,0,.77-.59,1.25-1.56,1.25a2.317,2.317,0,0,1-1.86-.88Zm6.52,2.25a1.93,1.93,0,0,0,.82-1.51A.679.679,0,0,0-6.715-1a.536.536,0,0,0-.53.54.476.476,0,0,0,.48.51.464.464,0,0,0,.14-.02,1.493,1.493,0,0,1-.65.93Zm2.17-4.6c0,1.62.72,3.45,2.55,3.45S.365-1.71.365-3.33s-.73-3.44-2.55-3.44S-4.735-4.96-4.735-3.33Zm4.25,0c0,1.33-.43,2.71-1.7,2.71s-1.7-1.38-1.7-2.71.43-2.7,1.7-2.7S-.485-4.66-.485-3.33Zm2.17,0c0,1.62.72,3.45,2.55,3.45s2.55-1.83,2.55-3.45-.73-3.44-2.55-3.44S1.685-4.96,1.685-3.33Zm4.25,0c0,1.33-.43,2.71-1.7,2.71S2.535-2,2.535-3.33s.43-2.7,1.7-2.7S5.935-4.66,5.935-3.33Zm2.17,0c0,1.62.72,3.45,2.55,3.45S13.2-1.71,13.2-3.33s-.73-3.44-2.55-3.44S8.1-4.96,8.1-3.33Zm4.25,0c0,1.33-.43,2.71-1.7,2.71S8.955-2,8.955-3.33s.43-2.7,1.7-2.7S12.355-4.66,12.355-3.33Z" transform="translate(444.263 398)" fill="#8a9cb4"/>
    <line id="Line_2202" data-name="Line 2202" x2="357.632" transform="translate(189.487 253.053)" fill="none" stroke="#ebf2fa" stroke-width="1"/>
    <line id="Line_2203" data-name="Line 2203" x2="357.632" transform="translate(189.487 295.471)" fill="none" stroke="#ebf2fa" stroke-width="1"/>
    <g transform="matrix(1, 0, 0, 1, 140, 141)" filter="url(#Path_3194)">
      <path id="Path_3194-2" data-name="Path 3194" d="M20826.914-9391.819l131.82,81.849" transform="translate(-20778.13 9521.17)" fill="none" stroke="#2682de" stroke-width="4"/>
    </g>
    <g id="Ellipse_537" data-name="Ellipse 537" transform="translate(315.409 346.834)" fill="#fff" stroke="#2682de" stroke-width="2">
      <ellipse cx="4.99" cy="4.99" rx="4.99" ry="4.99" stroke="none"/>
      <ellipse cx="4.99" cy="4.99" rx="3.99" ry="3.99" fill="none"/>
    </g>
    <rect id="Rectangle_3970" data-name="Rectangle 3970" width="4.896" height="10.772" transform="translate(185.046 265.233)" fill="#fff"/>
    <path id="Path_3205" data-name="Path 3205" d="M.4-1.128A4.1,4.1,0,0,0,3.552.144c2.16,0,3.024-1.164,3.024-2.412,0-1.7-1.524-2.112-2.832-2.46-1-.252-1.86-.48-1.86-1.2,0-.672.612-1.128,1.5-1.128A3.122,3.122,0,0,1,5.7-6.12l.7-.888A3.924,3.924,0,0,0,3.48-8.124c-1.668,0-2.832.96-2.832,2.28,0,1.632,1.488,2,2.772,2.34C4.44-3.24,5.352-3,5.352-2.16,5.352-1.584,4.9-.924,3.6-.924A3.375,3.375,0,0,1,1.08-2.052ZM7.824-2.9a2.9,2.9,0,0,0,3,3.048A3.26,3.26,0,0,0,13.152-.72l-.5-.708a2.464,2.464,0,0,1-1.716.684,1.9,1.9,0,0,1-1.968-1.8h4.584v-.264a2.85,2.85,0,0,0-2.82-3.132A2.915,2.915,0,0,0,7.824-2.9Zm2.9-2.148a1.715,1.715,0,0,1,1.764,1.728H8.952A1.775,1.775,0,0,1,10.728-5.052ZM15.144,0h1.08V-8h-1.08ZM17.82-2.9a2.9,2.9,0,0,0,3,3.048A3.26,3.26,0,0,0,23.148-.72l-.5-.708a2.464,2.464,0,0,1-1.716.684,1.9,1.9,0,0,1-1.968-1.8h4.584v-.264a2.85,2.85,0,0,0-2.82-3.132A2.915,2.915,0,0,0,17.82-2.9Zm2.9-2.148a1.715,1.715,0,0,1,1.764,1.728h-3.54A1.775,1.775,0,0,1,20.724-5.052ZM24.78-2.9A2.894,2.894,0,0,0,27.732.144,2.532,2.532,0,0,0,29.9-.876l-.72-.66a1.647,1.647,0,0,1-1.4.72A1.9,1.9,0,0,1,25.908-2.9,1.887,1.887,0,0,1,27.78-4.98a1.619,1.619,0,0,1,1.4.72l.72-.66a2.532,2.532,0,0,0-2.172-1.02A2.884,2.884,0,0,0,24.78-2.9ZM32.928.144a1.538,1.538,0,0,0,1.128-.372l-.276-.816a.831.831,0,0,1-.588.228c-.372,0-.564-.3-.564-.708V-4.848H33.8V-5.8H32.628V-7.38h-1.08V-5.8h-.96v.948h.96v3.564A1.261,1.261,0,0,0,32.928.144ZM46.332-4A3.936,3.936,0,0,0,42.3-8.136,3.936,3.936,0,0,0,38.268-4,3.936,3.936,0,0,0,42.3.144,4.14,4.14,0,0,0,44.4-.4l.732.8L45.96-.3l-.708-.78A4.215,4.215,0,0,0,46.332-4ZM42.3-.924A2.807,2.807,0,0,1,39.5-4a2.8,2.8,0,0,1,2.8-3.072A2.814,2.814,0,0,1,45.1-4a3.358,3.358,0,0,1-.636,2.04L43.4-3.132l-.84.708,1.068,1.176A2.8,2.8,0,0,1,42.3-.924ZM51.912,0h1.08V-5.8h-1.08v4.164A2.1,2.1,0,0,1,50.3-.816c-.744,0-1.224-.288-1.224-1.248V-5.8H48V-1.7A1.635,1.635,0,0,0,49.848.144a2.864,2.864,0,0,0,2.064-.936Zm6.612,0H59.6V-3.912c0-1.476-1.068-2.028-2.328-2.028a3.258,3.258,0,0,0-2.376.948l.468.744a2.372,2.372,0,0,1,1.74-.768c.828,0,1.416.432,1.416,1.152v.96a2.417,2.417,0,0,0-1.9-.768,1.871,1.871,0,0,0-2.016,1.9A1.926,1.926,0,0,0,56.628.144a2.484,2.484,0,0,0,1.9-.78Zm0-1.272a1.836,1.836,0,0,1-1.488.66A1.2,1.2,0,0,1,55.7-1.764a1.2,1.2,0,0,1,1.332-1.152,1.836,1.836,0,0,1,1.488.66ZM65.484,0h1.08V-4.068A1.666,1.666,0,0,0,64.7-5.94a2.764,2.764,0,0,0-2.052.96V-5.8h-1.08V0h1.08V-4.14a2.07,2.07,0,0,1,1.6-.84c.744,0,1.236.312,1.236,1.272Zm4.632.144a1.538,1.538,0,0,0,1.128-.372l-.276-.816a.831.831,0,0,1-.588.228c-.372,0-.564-.3-.564-.708V-4.848h1.176V-5.8H69.816V-7.38h-1.08V-5.8h-.96v.948h.96v3.564A1.261,1.261,0,0,0,70.116.144ZM72.96-6.768a.686.686,0,0,0,.7-.684.7.7,0,0,0-.7-.7.7.7,0,0,0-.7.7A.694.694,0,0,0,72.96-6.768ZM72.432,0h1.08V-5.8h-1.08Zm4.632.144a1.538,1.538,0,0,0,1.128-.372l-.276-.816a.831.831,0,0,1-.588.228c-.372,0-.564-.3-.564-.708V-4.848H77.94V-5.8H76.764V-7.38h-1.08V-5.8h-.96v.948h.96v3.564A1.261,1.261,0,0,0,77.064.144ZM79.26,1.3l-.168.972a3.122,3.122,0,0,0,.672.084A1.832,1.832,0,0,0,81.612,1.1l2.856-6.9H83.3L81.492-1.248,79.68-5.8H78.528L80.916.06,80.58.828a.8.8,0,0,1-.84.564A1.317,1.317,0,0,1,79.26,1.3Z" transform="translate(160.316 177.876)" fill="#49628c"/>
    <path id="Path_3206" data-name="Path 3206" d="M.888-3.132A3.032,3.032,0,0,0,4.26.144,3.021,3.021,0,0,0,7.62-3.144V-8H6.408v4.836A2.008,2.008,0,0,1,4.26-.924,2.017,2.017,0,0,1,2.1-3.168V-8H.888ZM13.536,0h1.08V-4.068a1.666,1.666,0,0,0-1.86-1.872,2.764,2.764,0,0,0-2.052.96V-5.8H9.624V0H10.7V-4.14a2.07,2.07,0,0,1,1.6-.84c.744,0,1.236.312,1.236,1.272ZM17.1-6.768a.686.686,0,0,0,.7-.684.7.7,0,0,0-.7-.7.7.7,0,0,0-.7.7A.694.694,0,0,0,17.1-6.768ZM16.572,0h1.08V-5.8h-1.08ZM21.2.144a1.538,1.538,0,0,0,1.128-.372l-.276-.816a.831.831,0,0,1-.588.228c-.372,0-.564-.3-.564-.708V-4.848H22.08V-5.8H20.9V-7.38h-1.08V-5.8h-.96v.948h.96v3.564A1.261,1.261,0,0,0,21.2.144ZM26.88,0h1.2V-3.084h2.172a2.394,2.394,0,0,0,2.556-2.46A2.387,2.387,0,0,0,30.252-8H26.88Zm4.692-5.544A1.374,1.374,0,0,1,30.1-4.14H28.08V-6.948H30.1A1.374,1.374,0,0,1,31.572-5.544ZM34.26,0h1.08V-4.032a2.047,2.047,0,0,1,1.524-.84,1.7,1.7,0,0,1,.372.036V-5.928a2.462,2.462,0,0,0-1.9,1.02V-5.8H34.26Zm4.824-6.768a.686.686,0,0,0,.7-.684.7.7,0,0,0-.7-.7.7.7,0,0,0-.7.7A.694.694,0,0,0,39.084-6.768ZM38.556,0h1.08V-5.8h-1.08Zm2.676-2.9A2.894,2.894,0,0,0,44.184.144a2.532,2.532,0,0,0,2.172-1.02l-.72-.66a1.647,1.647,0,0,1-1.4.72A1.9,1.9,0,0,1,42.36-2.9,1.887,1.887,0,0,1,44.232-4.98a1.619,1.619,0,0,1,1.4.72l.72-.66a2.532,2.532,0,0,0-2.172-1.02A2.884,2.884,0,0,0,41.232-2.9Zm6.192,0a2.9,2.9,0,0,0,3,3.048A3.26,3.26,0,0,0,52.752-.72l-.5-.708a2.464,2.464,0,0,1-1.716.684,1.9,1.9,0,0,1-1.968-1.8h4.584v-.264a2.85,2.85,0,0,0-2.82-3.132A2.915,2.915,0,0,0,47.424-2.9Zm2.9-2.148a1.715,1.715,0,0,1,1.764,1.728h-3.54A1.775,1.775,0,0,1,50.328-5.052Z" transform="translate(319.761 177.876)" fill="#49628c"/>
    <path id="Path_3207" data-name="Path 3207" d="M.888-3.132A3.032,3.032,0,0,0,4.26.144,3.021,3.021,0,0,0,7.62-3.144V-8H6.408v4.836A2.008,2.008,0,0,1,4.26-.924,2.017,2.017,0,0,1,2.1-3.168V-8H.888ZM13.536,0h1.08V-4.068a1.666,1.666,0,0,0-1.86-1.872,2.764,2.764,0,0,0-2.052.96V-5.8H9.624V0H10.7V-4.14a2.07,2.07,0,0,1,1.6-.84c.744,0,1.236.312,1.236,1.272ZM17.1-6.768a.686.686,0,0,0,.7-.684.7.7,0,0,0-.7-.7.7.7,0,0,0-.7.7A.694.694,0,0,0,17.1-6.768ZM16.572,0h1.08V-5.8h-1.08ZM21.2.144a1.538,1.538,0,0,0,1.128-.372l-.276-.816a.831.831,0,0,1-.588.228c-.372,0-.564-.3-.564-.708V-4.848H22.08V-5.8H20.9V-7.38h-1.08V-5.8h-.96v.948h.96v3.564A1.261,1.261,0,0,0,21.2.144Zm5.184-1.272A4.1,4.1,0,0,0,29.544.144c2.16,0,3.024-1.164,3.024-2.412,0-1.7-1.524-2.112-2.832-2.46-1-.252-1.86-.48-1.86-1.2,0-.672.612-1.128,1.5-1.128a3.122,3.122,0,0,1,2.316.936l.7-.888a3.924,3.924,0,0,0-2.916-1.116c-1.668,0-2.832.96-2.832,2.28,0,1.632,1.488,2,2.772,2.34,1.02.264,1.932.5,1.932,1.344,0,.576-.456,1.236-1.752,1.236a3.375,3.375,0,0,1-2.52-1.128ZM37.752,0h1.08V-3.912c0-1.476-1.068-2.028-2.328-2.028a3.258,3.258,0,0,0-2.376.948l.468.744a2.372,2.372,0,0,1,1.74-.768c.828,0,1.416.432,1.416,1.152v.96a2.417,2.417,0,0,0-1.9-.768,1.871,1.871,0,0,0-2.016,1.9A1.926,1.926,0,0,0,35.856.144a2.484,2.484,0,0,0,1.9-.78Zm0-1.272a1.836,1.836,0,0,1-1.488.66,1.2,1.2,0,0,1-1.332-1.152,1.2,1.2,0,0,1,1.332-1.152,1.836,1.836,0,0,1,1.488.66ZM42.336,0H43.5l2.388-5.8H44.724L42.912-1.248,41.1-5.8H39.948Zm5.2-6.768a.686.686,0,0,0,.7-.684.7.7,0,0,0-.7-.7.7.7,0,0,0-.7.7A.694.694,0,0,0,47.532-6.768ZM47,0h1.08V-5.8H47Zm6.948,0h1.08V-4.068a1.666,1.666,0,0,0-1.86-1.872,2.764,2.764,0,0,0-2.052.96V-5.8H50.04V0h1.08V-4.14a2.07,2.07,0,0,1,1.6-.84c.744,0,1.236.312,1.236,1.272ZM56.94,1.488a3.115,3.115,0,0,0,2.376.864c1.428,0,2.88-.588,2.88-2.58V-5.8h-1.08v.84a2.366,2.366,0,0,0-1.908-.984c-1.5,0-2.58,1.128-2.58,2.988,0,1.9,1.08,3,2.58,3a2.443,2.443,0,0,0,1.908-1v.756a1.6,1.6,0,0,1-1.8,1.656A2.261,2.261,0,0,1,57.456.7Zm4.176-3.264a2.031,2.031,0,0,1-1.608.864,1.8,1.8,0,0,1-1.752-2.04A1.8,1.8,0,0,1,59.508-4.98a2.021,2.021,0,0,1,1.608.852Zm2.532,1.02a3.3,3.3,0,0,0,2.412.9c1.524,0,2.34-.78,2.34-1.776,0-1.332-1.2-1.608-2.208-1.836-.72-.168-1.344-.336-1.344-.84,0-.468.456-.756,1.188-.756a2.259,2.259,0,0,1,1.716.708l.48-.756a3.1,3.1,0,0,0-2.208-.828c-1.416,0-2.208.792-2.208,1.716,0,1.248,1.152,1.512,2.136,1.74.744.168,1.4.36,1.4.936,0,.492-.432.828-1.248.828a2.808,2.808,0,0,1-1.944-.828Z" transform="translate(442.173 177.876)" fill="#49628c"/>
    <g id="Group_3184" data-name="Group 3184" transform="translate(160.316 187.773)">
      <rect id="Rectangle_3345" data-name="Rectangle 3345" width="132.98" height="35.226" rx="4" transform="translate(0 0)" fill="#fff"/>
      <path id="Rectangle_3346" data-name="Rectangle 3346" d="M0,0H29.062a0,0,0,0,1,0,0V13.613a4,4,0,0,1-4,4H0a0,0,0,0,1,0,0V0A0,0,0,0,1,0,0Z" transform="translate(103.918 17.613)" fill="#c8d6e6"/>
      <path id="Rectangle_3347" data-name="Rectangle 3347" d="M0,0H25.062a4,4,0,0,1,4,4V17.613a0,0,0,0,1,0,0H0a0,0,0,0,1,0,0V0A0,0,0,0,1,0,0Z" transform="translate(103.918 0)" fill="#ebf2fa"/>
      <g id="Rectangle_3352" data-name="Rectangle 3352" transform="translate(0 0)" fill="none" stroke="#ebf2fa" stroke-width="1">
        <rect width="132.98" height="35.226" rx="2" stroke="none"/>
        <rect x="0.5" y="0.5" width="131.98" height="34.226" rx="1.5" fill="none"/>
      </g>
      <path id="Path_3210" data-name="Path 3210" d="M-14.458-1.581A4.914,4.914,0,0,0-10.344.2c2.4,0,4.165-1.462,4.165-3.791A3.492,3.492,0,0,0-9.8-7.225a3.758,3.758,0,0,0-2.6,1V-9.843h5.474v-1.5H-14.1v6.222l1.224.391a3.487,3.487,0,0,1,2.55-1.02A2.192,2.192,0,0,1-7.9-3.519a2.265,2.265,0,0,1-2.465,2.21,3.8,3.8,0,0,1-3.094-1.428Zm9.86-4.08C-4.6-2.856-3.306.2-.161.2s4.437-3.06,4.437-5.865S2.984-11.509-.161-11.509-4.6-8.466-4.6-5.661Zm7.14,0c0,2.21-.7,4.352-2.7,4.352s-2.7-2.142-2.7-4.352S-2.168-10-.161-10,2.542-7.871,2.542-5.661Zm3.3,0C5.839-2.856,7.132.2,10.277.2s4.437-3.06,4.437-5.865-1.292-5.848-4.437-5.848S5.839-8.466,5.839-5.661Zm7.14,0c0,2.21-.7,4.352-2.7,4.352s-2.7-2.142-2.7-4.352S8.271-10,10.277-10,12.979-7.871,12.979-5.661Z" transform="translate(53.749 23.045)" fill="#3f5d8d"/>
      <path id="Path_1692" data-name="Path 1692" d="M0,0,4.4,4.418,0,8.822" transform="translate(122.869 24.218) rotate(90)" fill="none" stroke="#285780" stroke-linejoin="round" stroke-width="1"/>
      <path id="Path_1693" data-name="Path 1693" d="M0,0,4.4,4.418,0,8.822" transform="translate(114.046 11.007) rotate(-90)" fill="none" stroke="#285780" stroke-linejoin="round" stroke-width="1"/>
    </g>
    <path id="Path_3209" data-name="Path 3209" d="M12.272-2.626A3.332,3.332,0,0,1,9.8-1.586,3.909,3.909,0,0,1,8.008-2.08a4.438,4.438,0,0,0-2.054-.572A4.322,4.322,0,0,0,4.6-2.418,4.151,4.151,0,0,0,6.578-5.85a3.748,3.748,0,0,0-.156-1.118H9.568v-1.4h-3.9c-.182-.26-.39-.494-.572-.728a5.018,5.018,0,0,1-1.534-3.354A3.432,3.432,0,0,1,7.28-15.782a3.623,3.623,0,0,1,3.3,2.132l1.742-1.04A5.66,5.66,0,0,0,7.072-17.6C3.9-17.6,1.248-15.34,1.248-12.48a5.763,5.763,0,0,0,1.82,3.9c.052.078.13.13.182.208H.494v1.4h3.77a3.379,3.379,0,0,1,.39,1.56c0,1.56-1.248,2.99-3.458,3.978L1.976.182A7.281,7.281,0,0,1,5.044-.858,4.391,4.391,0,0,1,7.15-.286,5.211,5.211,0,0,0,9.7.338a4.895,4.895,0,0,0,3.51-1.222ZM18.1,0h2.158V-17.342h-1.9L14.014-12.87l1.3,1.326L18.1-14.482Zm5.512-8.632c0,4.706,1.846,8.944,6.682,8.944,3.8,0,6.084-2.652,6.084-5.668,0-3.692-2.548-5.538-5.668-5.538a6.231,6.231,0,0,0-4.914,2.7,5.876,5.876,0,0,1-.026-.676c0-3.406,1.534-6.812,4.888-6.812a4.444,4.444,0,0,1,3.718,1.768l1.092-1.612a6.032,6.032,0,0,0-4.81-2.08C25.792-17.6,23.608-13.338,23.608-8.632ZM34.19-5.278a3.75,3.75,0,0,1-3.978,3.666c-3.016,0-4.16-2.652-4.368-4.81a5.329,5.329,0,0,1,4.342-2.6C32.422-9.022,34.19-7.826,34.19-5.278Zm4.784-3.38c0,4.212,1.872,8.97,6.63,8.97,4.732,0,6.63-4.758,6.63-8.97,0-4.238-1.9-8.944-6.63-8.944C40.846-17.6,38.974-12.9,38.974-8.658Zm11.05,0c0,3.458-1.118,7.046-4.42,7.046s-4.42-3.588-4.42-7.046,1.118-7.02,4.42-7.02S50.024-12.116,50.024-8.658Zm4.29,7.488A1.443,1.443,0,0,0,55.744.26a1.443,1.443,0,0,0,1.43-1.43,1.443,1.443,0,0,0-1.43-1.43A1.443,1.443,0,0,0,54.314-1.17ZM60.06-8.658c0,4.212,1.872,8.97,6.63,8.97,4.732,0,6.63-4.758,6.63-8.97,0-4.238-1.9-8.944-6.63-8.944C61.932-17.6,60.06-12.9,60.06-8.658Zm11.05,0c0,3.458-1.118,7.046-4.42,7.046S62.27-5.2,62.27-8.658s1.118-7.02,4.42-7.02S71.11-12.116,71.11-8.658Zm4.862,0c0,4.212,1.872,8.97,6.63,8.97,4.732,0,6.63-4.758,6.63-8.97,0-4.238-1.9-8.944-6.63-8.944C77.844-17.6,75.972-12.9,75.972-8.658Zm11.05,0c0,3.458-1.118,7.046-4.42,7.046s-4.42-3.588-4.42-7.046,1.118-7.02,4.42-7.02S87.022-12.116,87.022-8.658Z" transform="translate(319.761 213.654)" fill="#e33d5a"/>
    <path id="Path_3208" data-name="Path 3208" d="M.78-5.434H7.02V-7.15H.78ZM20.072-2.626a3.332,3.332,0,0,1-2.47,1.04,3.909,3.909,0,0,1-1.794-.494,4.438,4.438,0,0,0-2.054-.572,4.322,4.322,0,0,0-1.352.234A4.151,4.151,0,0,0,14.378-5.85a3.748,3.748,0,0,0-.156-1.118h3.146v-1.4h-3.9c-.182-.26-.39-.494-.572-.728a5.018,5.018,0,0,1-1.534-3.354,3.432,3.432,0,0,1,3.718-3.328,3.623,3.623,0,0,1,3.3,2.132l1.742-1.04A5.66,5.66,0,0,0,14.872-17.6c-3.172,0-5.824,2.262-5.824,5.122a5.763,5.763,0,0,0,1.82,3.9c.052.078.13.13.182.208H8.294v1.4h3.77a3.379,3.379,0,0,1,.39,1.56c0,1.56-1.248,2.99-3.458,3.978L9.776.182a7.281,7.281,0,0,1,3.068-1.04,4.391,4.391,0,0,1,2.106.572A5.211,5.211,0,0,0,17.5.338a4.895,4.895,0,0,0,3.51-1.222ZM30.342,0H32.5V-4.394h2.444v-1.9H32.5v-11.05H29.536L22.1-6.188v1.794h8.242Zm0-15.34v9.048H24.258ZM44.85,0h2.158V-4.394h2.444v-1.9H47.008v-11.05H44.044L36.608-6.188v1.794H44.85Zm0-15.34v9.048H38.766ZM51.844-1.17A1.443,1.443,0,0,0,53.274.26,1.443,1.443,0,0,0,54.7-1.17a1.443,1.443,0,0,0-1.43-1.43A1.443,1.443,0,0,0,51.844-1.17ZM57.59-8.658c0,4.212,1.872,8.97,6.63,8.97,4.732,0,6.63-4.758,6.63-8.97,0-4.238-1.9-8.944-6.63-8.944C59.462-17.6,57.59-12.9,57.59-8.658Zm11.05,0c0,3.458-1.118,7.046-4.42,7.046S59.8-5.2,59.8-8.658s1.118-7.02,4.42-7.02S68.64-12.116,68.64-8.658Zm4.862,0c0,4.212,1.872,8.97,6.63,8.97,4.732,0,6.63-4.758,6.63-8.97,0-4.238-1.9-8.944-6.63-8.944C75.374-17.6,73.5-12.9,73.5-8.658Zm11.05,0c0,3.458-1.118,7.046-4.42,7.046s-4.42-3.588-4.42-7.046,1.118-7.02,4.42-7.02S84.552-12.116,84.552-8.658Z" transform="translate(442.173 213.654)" fill="#3e5e7e"/>
    <line id="Line_2205" data-name="Line 2205" x2="357.632" transform="translate(189.487 379.472)" fill="none" stroke="#ebf2fa" stroke-width="1"/>
    <rect id="Rectangle_3977" data-name="Rectangle 3977" width="10" height="2" rx="1" transform="translate(169 252)" fill="#d8dee6"/>
    <rect id="Rectangle_3978" data-name="Rectangle 3978" width="10" height="2" rx="1" transform="translate(169 294)" fill="#d8dee6"/>
    <rect id="Rectangle_3979" data-name="Rectangle 3979" width="10" height="2" rx="1" transform="translate(169 336)" fill="#d8dee6"/>
    <rect id="Rectangle_3980" data-name="Rectangle 3980" width="10" height="2" rx="1" transform="translate(169 378)" fill="#d8dee6"/>
  </g>
</svg>
