<svg xmlns="http://www.w3.org/2000/svg" xmlns:xlink="http://www.w3.org/1999/xlink" width="440.339" height="373.818" viewBox="0 0 440.339 373.818">
  <defs>
    <filter id="Rectangle_3350" x="30" y="26" width="380.339" height="313.818" filterUnits="userSpaceOnUse">
      <feOffset dy="6" input="SourceAlpha"/>
      <feGaussianBlur stdDeviation="5" result="blur"/>
      <feFlood flood-color="#7996b4" flood-opacity="0.431"/>
      <feComposite operator="in" in2="blur"/>
      <feComposite in="SourceGraphic"/>
    </filter>
    <filter id="Rectangle_3855" x="0" y="0" width="440.339" height="373.818" filterUnits="userSpaceOnUse">
      <feOffset dy="10" input="SourceAlpha"/>
      <feGaussianBlur stdDeviation="15" result="blur-2"/>
      <feFlood flood-color="#7996b4" flood-opacity="0.102"/>
      <feComposite operator="in" in2="blur-2"/>
      <feComposite in="SourceGraphic"/>
    </filter>
    <filter id="Rectangle_2485" x="218.561" y="262.559" width="170.996" height="51.26" filterUnits="userSpaceOnUse">
      <feOffset dy="3" input="SourceAlpha"/>
      <feGaussianBlur stdDeviation="3" result="blur-3"/>
      <feFlood flood-color="#225978" flood-opacity="0.251"/>
      <feComposite operator="in" in2="blur-3"/>
      <feComposite in="SourceGraphic"/>
    </filter>
    <filter id="Path_2770" x="93.017" y="121.064" width="37.393" height="45.059" filterUnits="userSpaceOnUse">
      <feOffset dy="10" input="SourceAlpha"/>
      <feGaussianBlur stdDeviation="3" result="blur-4"/>
      <feFlood flood-color="#1864b1" flood-opacity="0.161"/>
      <feComposite operator="in" in2="blur-4"/>
      <feComposite in="SourceGraphic"/>
    </filter>
  </defs>
  <g id="Group_3004" data-name="Group 3004" transform="translate(45 35)">
    <g id="Group_2934" data-name="Group 2934" transform="translate(0 0)">
      <g transform="matrix(1, 0, 0, 1, -45, -35)" filter="url(#Rectangle_3350)">
        <rect id="Rectangle_3350-2" data-name="Rectangle 3350" width="350.339" height="283.818" rx="4" transform="translate(45 35)" fill="#fafbfc"/>
      </g>
      <g transform="matrix(1, 0, 0, 1, -45, -35)" filter="url(#Rectangle_3855)">
        <rect id="Rectangle_3855-2" data-name="Rectangle 3855" width="350.339" height="283.818" rx="4" transform="translate(45 35)" fill="#fafbfc"/>
      </g>
      <path id="Path_3061" data-name="Path 3061" d="M.3-.846A3.072,3.072,0,0,0,2.664.108c1.62,0,2.268-.873,2.268-1.809,0-1.278-1.143-1.584-2.124-1.845-.747-.189-1.395-.36-1.395-.9,0-.5.459-.846,1.125-.846a2.342,2.342,0,0,1,1.737.7L4.8-5.256A2.943,2.943,0,0,0,2.61-6.093c-1.251,0-2.124.72-2.124,1.71,0,1.224,1.116,1.5,2.079,1.755.765.2,1.449.378,1.449,1.008,0,.432-.342.927-1.314.927A2.531,2.531,0,0,1,.81-1.539ZM5.868-2.178A2.174,2.174,0,0,0,8.118.108,2.445,2.445,0,0,0,9.864-.54l-.378-.531A1.848,1.848,0,0,1,8.2-.558a1.426,1.426,0,0,1-1.476-1.35h3.438v-.2A2.137,2.137,0,0,0,8.046-4.455,2.186,2.186,0,0,0,5.868-2.178ZM8.046-3.789a1.286,1.286,0,0,1,1.323,1.3H6.714A1.331,1.331,0,0,1,8.046-3.789ZM11.358,0h.81V-6h-.81Zm2.007-2.178A2.174,2.174,0,0,0,15.615.108,2.445,2.445,0,0,0,17.361-.54l-.378-.531A1.848,1.848,0,0,1,15.7-.558a1.426,1.426,0,0,1-1.476-1.35h3.438v-.2a2.137,2.137,0,0,0-2.115-2.349A2.186,2.186,0,0,0,13.365-2.178Zm2.178-1.611a1.286,1.286,0,0,1,1.323,1.3H14.211A1.331,1.331,0,0,1,15.543-3.789Zm3.042,1.611A2.17,2.17,0,0,0,20.8.108a1.9,1.9,0,0,0,1.629-.765l-.54-.5a1.235,1.235,0,0,1-1.053.54,1.423,1.423,0,0,1-1.4-1.566,1.415,1.415,0,0,1,1.4-1.557,1.214,1.214,0,0,1,1.053.54l.54-.5A1.9,1.9,0,0,0,20.8-4.455,2.163,2.163,0,0,0,18.585-2.178ZM24.7.108a1.154,1.154,0,0,0,.846-.279l-.207-.612a.623.623,0,0,1-.441.171c-.279,0-.423-.225-.423-.531V-3.636h.882v-.711h-.882V-5.535h-.81v1.188h-.72v.711h.72V-.963A.946.946,0,0,0,24.7.108ZM34.749-3a2.952,2.952,0,0,0-3.024-3.1A2.952,2.952,0,0,0,28.7-3a2.952,2.952,0,0,0,3.024,3.1A3.1,3.1,0,0,0,33.3-.3l.549.6.621-.531L33.939-.81A3.161,3.161,0,0,0,34.749-3Zm-3.024,2.3a2.105,2.105,0,0,1-2.1-2.3,2.1,2.1,0,0,1,2.1-2.3,2.111,2.111,0,0,1,2.1,2.3,2.519,2.519,0,0,1-.477,1.53l-.792-.882-.63.531.8.882A2.1,2.1,0,0,1,31.725-.693ZM38.934,0h.81V-4.347h-.81v3.123a1.571,1.571,0,0,1-1.206.612c-.558,0-.918-.216-.918-.936v-2.8H36v3.069A1.226,1.226,0,0,0,37.386.108a2.148,2.148,0,0,0,1.548-.7Zm4.959,0h.81V-2.934c0-1.107-.8-1.521-1.746-1.521a2.444,2.444,0,0,0-1.782.711l.351.558a1.779,1.779,0,0,1,1.305-.576c.621,0,1.062.324,1.062.864v.72a1.813,1.813,0,0,0-1.422-.576,1.4,1.4,0,0,0-1.512,1.422A1.445,1.445,0,0,0,42.471.108a1.863,1.863,0,0,0,1.422-.585Zm0-.954a1.377,1.377,0,0,1-1.116.5.9.9,0,0,1-1-.864.9.9,0,0,1,1-.864,1.377,1.377,0,0,1,1.116.5ZM49.113,0h.81V-3.051a1.249,1.249,0,0,0-1.395-1.4,2.073,2.073,0,0,0-1.539.72v-.612h-.81V0h.81V-3.105a1.553,1.553,0,0,1,1.2-.63c.558,0,.927.234.927.954Zm3.474.108a1.154,1.154,0,0,0,.846-.279l-.207-.612a.623.623,0,0,1-.441.171c-.279,0-.423-.225-.423-.531V-3.636h.882v-.711h-.882V-5.535h-.81v1.188h-.72v.711h.72V-.963A.946.946,0,0,0,52.587.108ZM54.72-5.076a.515.515,0,0,0,.522-.513.522.522,0,0,0-.522-.522.528.528,0,0,0-.522.522A.52.52,0,0,0,54.72-5.076ZM54.324,0h.81V-4.347h-.81ZM57.8.108a1.154,1.154,0,0,0,.846-.279l-.207-.612A.623.623,0,0,1,58-.612c-.279,0-.423-.225-.423-.531V-3.636h.882v-.711h-.882V-5.535h-.81v1.188h-.72v.711h.72V-.963A.946.946,0,0,0,57.8.108Zm1.647.864-.126.729a2.341,2.341,0,0,0,.5.063A1.374,1.374,0,0,0,61.209.828l2.142-5.175h-.873L61.119-.936,59.76-4.347H58.9L60.687.045l-.252.576a.6.6,0,0,1-.63.423A.988.988,0,0,1,59.445.972Z" transform="translate(14.782 26.478)" fill="#49628c"/>
      <path id="Path_3062" data-name="Path 3062" d="M.666-2.349A2.274,2.274,0,0,0,3.195.108a2.266,2.266,0,0,0,2.52-2.466V-6H4.806v3.627A1.506,1.506,0,0,1,3.195-.693a1.513,1.513,0,0,1-1.62-1.683V-6H.666ZM10.152,0h.81V-3.051a1.249,1.249,0,0,0-1.395-1.4,2.073,2.073,0,0,0-1.539.72v-.612h-.81V0h.81V-3.105a1.553,1.553,0,0,1,1.2-.63c.558,0,.927.234.927.954Zm2.673-5.076a.515.515,0,0,0,.522-.513.522.522,0,0,0-.522-.522.528.528,0,0,0-.522.522A.52.52,0,0,0,12.825-5.076ZM12.429,0h.81V-4.347h-.81ZM15.9.108a1.154,1.154,0,0,0,.846-.279l-.207-.612a.623.623,0,0,1-.441.171c-.279,0-.423-.225-.423-.531V-3.636h.882v-.711h-.882V-5.535h-.81v1.188h-.72v.711h.72V-.963A.946.946,0,0,0,15.9.108ZM20.16,0h.9V-2.313h1.629a1.8,1.8,0,0,0,1.917-1.845A1.791,1.791,0,0,0,22.689-6H20.16Zm3.519-4.158a1.031,1.031,0,0,1-1.107,1.053H21.06V-5.211h1.512A1.031,1.031,0,0,1,23.679-4.158ZM25.7,0h.81V-3.024a1.536,1.536,0,0,1,1.143-.63,1.275,1.275,0,0,1,.279.027v-.819a1.847,1.847,0,0,0-1.422.765v-.666H25.7Zm3.618-5.076a.515.515,0,0,0,.522-.513.522.522,0,0,0-.522-.522.528.528,0,0,0-.522.522A.52.52,0,0,0,29.313-5.076ZM28.917,0h.81V-4.347h-.81Zm2.007-2.178A2.17,2.17,0,0,0,33.138.108a1.9,1.9,0,0,0,1.629-.765l-.54-.5a1.235,1.235,0,0,1-1.053.54,1.423,1.423,0,0,1-1.4-1.566,1.415,1.415,0,0,1,1.4-1.557,1.214,1.214,0,0,1,1.053.54l.54-.5a1.9,1.9,0,0,0-1.629-.765A2.163,2.163,0,0,0,30.924-2.178Zm4.644,0A2.174,2.174,0,0,0,37.818.108,2.445,2.445,0,0,0,39.564-.54l-.378-.531A1.848,1.848,0,0,1,37.9-.558a1.426,1.426,0,0,1-1.476-1.35h3.438v-.2a2.137,2.137,0,0,0-2.115-2.349A2.186,2.186,0,0,0,35.568-2.178Zm2.178-1.611a1.286,1.286,0,0,1,1.323,1.3H36.414A1.331,1.331,0,0,1,37.746-3.789Z" transform="translate(113.474 26.478)" fill="#49628c"/>
      <path id="Path_3063" data-name="Path 3063" d="M.666-2.349A2.274,2.274,0,0,0,3.195.108a2.266,2.266,0,0,0,2.52-2.466V-6H4.806v3.627A1.506,1.506,0,0,1,3.195-.693a1.513,1.513,0,0,1-1.62-1.683V-6H.666ZM10.152,0h.81V-3.051a1.249,1.249,0,0,0-1.395-1.4,2.073,2.073,0,0,0-1.539.72v-.612h-.81V0h.81V-3.105a1.553,1.553,0,0,1,1.2-.63c.558,0,.927.234.927.954Zm2.673-5.076a.515.515,0,0,0,.522-.513.522.522,0,0,0-.522-.522.528.528,0,0,0-.522.522A.52.52,0,0,0,12.825-5.076ZM12.429,0h.81V-4.347h-.81ZM15.9.108a1.154,1.154,0,0,0,.846-.279l-.207-.612a.623.623,0,0,1-.441.171c-.279,0-.423-.225-.423-.531V-3.636h.882v-.711h-.882V-5.535h-.81v1.188h-.72v.711h.72V-.963A.946.946,0,0,0,15.9.108Zm3.888-.954a3.072,3.072,0,0,0,2.367.954c1.62,0,2.268-.873,2.268-1.809,0-1.278-1.143-1.584-2.124-1.845-.747-.189-1.4-.36-1.4-.9,0-.5.459-.846,1.125-.846a2.342,2.342,0,0,1,1.737.7l.522-.666A2.943,2.943,0,0,0,22.1-6.093c-1.251,0-2.124.72-2.124,1.71,0,1.224,1.116,1.5,2.079,1.755.765.2,1.449.378,1.449,1.008,0,.432-.342.927-1.314.927a2.531,2.531,0,0,1-1.89-.846ZM28.314,0h.81V-2.934c0-1.107-.8-1.521-1.746-1.521a2.444,2.444,0,0,0-1.782.711l.351.558a1.779,1.779,0,0,1,1.305-.576c.621,0,1.062.324,1.062.864v.72a1.813,1.813,0,0,0-1.422-.576A1.4,1.4,0,0,0,25.38-1.332,1.445,1.445,0,0,0,26.892.108a1.863,1.863,0,0,0,1.422-.585Zm0-.954a1.377,1.377,0,0,1-1.116.5.9.9,0,0,1-1-.864.9.9,0,0,1,1-.864,1.377,1.377,0,0,1,1.116.5ZM31.752,0h.873l1.791-4.347h-.873L32.184-.936,30.825-4.347h-.864Zm3.9-5.076a.515.515,0,0,0,.522-.513.522.522,0,0,0-.522-.522.528.528,0,0,0-.522.522A.52.52,0,0,0,35.649-5.076ZM35.253,0h.81V-4.347h-.81Zm5.211,0h.81V-3.051a1.249,1.249,0,0,0-1.4-1.4,2.073,2.073,0,0,0-1.539.72v-.612h-.81V0h.81V-3.105a1.553,1.553,0,0,1,1.2-.63c.558,0,.927.234.927.954ZM42.7,1.116a2.337,2.337,0,0,0,1.782.648c1.071,0,2.16-.441,2.16-1.935V-4.347h-.81v.63a1.774,1.774,0,0,0-1.431-.738,1.981,1.981,0,0,0-1.935,2.241c0,1.422.81,2.25,1.935,2.25a1.832,1.832,0,0,0,1.431-.747v.567A1.2,1.2,0,0,1,44.487,1.1a1.7,1.7,0,0,1-1.4-.576Zm3.132-2.448a1.523,1.523,0,0,1-1.206.648,1.352,1.352,0,0,1-1.314-1.53,1.348,1.348,0,0,1,1.314-1.521,1.516,1.516,0,0,1,1.206.639Zm1.9.765a2.473,2.473,0,0,0,1.809.675c1.143,0,1.755-.585,1.755-1.332,0-1-.9-1.206-1.656-1.377-.54-.126-1.008-.252-1.008-.63,0-.351.342-.567.891-.567a1.7,1.7,0,0,1,1.287.531l.36-.567a2.326,2.326,0,0,0-1.656-.621c-1.062,0-1.656.594-1.656,1.287,0,.936.864,1.134,1.6,1.3.558.126,1.053.27,1.053.7,0,.369-.324.621-.936.621a2.106,2.106,0,0,1-1.458-.621Z" transform="translate(236.211 26.478)" fill="#49628c"/>
      <g id="Group_2523" data-name="Group 2523" transform="translate(-18.218 37.695)">
        <rect id="Rectangle_3345" data-name="Rectangle 3345" width="77.606" height="29.564" rx="4" transform="translate(34)" fill="#fff"/>
        <path id="Rectangle_3346" data-name="Rectangle 3346" d="M0,0H24.391a0,0,0,0,1,0,0V10.782a4,4,0,0,1-4,4H0a0,0,0,0,1,0,0V0A0,0,0,0,1,0,0Z" transform="translate(87.215 14.782)" fill="#c6c9d5"/>
        <path id="Rectangle_3347" data-name="Rectangle 3347" d="M0,0H20.391a4,4,0,0,1,4,4V14.782a0,0,0,0,1,0,0H0a0,0,0,0,1,0,0V0A0,0,0,0,1,0,0Z" transform="translate(87.215)" fill="#ebe8e8"/>
        <g id="Rectangle_3352" data-name="Rectangle 3352" transform="translate(33)" fill="none" stroke="#ebf2fa" stroke-width="1">
          <rect width="78.606" height="29.564" rx="4" stroke="none"/>
          <rect x="0.5" y="0.5" width="77.606" height="28.564" rx="3.5" fill="none"/>
        </g>
        <path id="Path_1692" data-name="Path 1692" d="M0,0,3.694,3.708,0,7.4" transform="translate(103.12 20.326) rotate(90)" fill="none" stroke="#285780" stroke-linejoin="round" stroke-width="1"/>
        <path id="Path_1693" data-name="Path 1693" d="M0,0,3.694,3.708,0,7.4" transform="translate(95.715 9.237) rotate(-90)" fill="none" stroke="#285780" stroke-linejoin="round" stroke-width="1"/>
        <text id="_1" data-name="1" transform="translate(58.794 17.532)" fill="#3f5d8d" font-size="12" font-family="ProximaNova-Medium, Proxima Nova" font-weight="500"><tspan x="0" y="0">1</tspan></text>
      </g>
      <g transform="matrix(1, 0, 0, 1, -45, -35)" filter="url(#Rectangle_2485)">
        <rect id="Rectangle_2485-2" data-name="Rectangle 2485" width="152.996" height="33.26" rx="2" transform="translate(227.56 268.56)" fill="#2682de"/>
      </g>
      <path id="Path_3076" data-name="Path 3076" d="M-25.58,0h1.1l-2.65-6.67h-1.25L-31.03,0h1.1l.54-1.38h3.27Zm-2.18-5.8,1.35,3.53H-29.1Zm7.5,5.8h.9V-6.67h-.9v2.54a1.967,1.967,0,0,0-1.58-.82A2.247,2.247,0,0,0-24-2.41c0,1.58.9,2.53,2.16,2.53a2,2,0,0,0,1.58-.81Zm0-1.38a1.661,1.661,0,0,1-1.34.7,1.528,1.528,0,0,1-1.46-1.73c0-1.01.56-1.74,1.46-1.74a1.669,1.669,0,0,1,1.34.71ZM-14.48,0h.9V-6.67h-.9v2.54a1.967,1.967,0,0,0-1.58-.82,2.247,2.247,0,0,0-2.16,2.54c0,1.58.9,2.53,2.16,2.53a2,2,0,0,0,1.58-.81Zm0-1.38a1.661,1.661,0,0,1-1.34.7,1.528,1.528,0,0,1-1.46-1.73c0-1.01.56-1.74,1.46-1.74a1.669,1.669,0,0,1,1.34.71ZM-8.23.12a1.282,1.282,0,0,0,.94-.31l-.23-.68a.692.692,0,0,1-.49.19c-.31,0-.47-.25-.47-.59V-4.04h.98v-.79h-.98V-6.15h-.9v1.32h-.8v.79h.8v2.97A1.051,1.051,0,0,0-8.23.12Zm3.87,0A2.394,2.394,0,0,0-1.92-2.42,2.392,2.392,0,0,0-4.36-4.95,2.4,2.4,0,0,0-6.8-2.42,2.4,2.4,0,0,0-4.36.12Zm0-.8a1.573,1.573,0,0,1-1.5-1.74,1.57,1.57,0,0,1,1.5-1.73,1.564,1.564,0,0,1,1.5,1.73A1.567,1.567,0,0,1-4.36-.68ZM1.82,0H5.03A1.744,1.744,0,0,0,6.96-1.8,1.649,1.649,0,0,0,5.67-3.44,1.508,1.508,0,0,0,6.83-4.97a1.691,1.691,0,0,0-1.88-1.7H1.82Zm1-3.84V-5.79H4.76a.951.951,0,0,1,1.04.98.944.944,0,0,1-1.04.97Zm0,2.96V-2.96H4.81A1.018,1.018,0,0,1,5.93-1.93,1,1,0,0,1,4.81-.88ZM11.16,0h.9V-3.26c0-1.23-.89-1.69-1.94-1.69a2.715,2.715,0,0,0-1.98.79l.39.62a1.976,1.976,0,0,1,1.45-.64c.69,0,1.18.36,1.18.96v.8a2.014,2.014,0,0,0-1.58-.64A1.559,1.559,0,0,0,7.9-1.48,1.605,1.605,0,0,0,9.58.12a2.07,2.07,0,0,0,1.58-.65Zm0-1.06a1.53,1.53,0,0,1-1.24.55,1,1,0,0,1-1.11-.96,1,1,0,0,1,1.11-.96,1.53,1.53,0,0,1,1.24.55Zm1.92.43a2.748,2.748,0,0,0,2.01.75c1.27,0,1.95-.65,1.95-1.48,0-1.11-1-1.34-1.84-1.53-.6-.14-1.12-.28-1.12-.7,0-.39.38-.63.99-.63a1.883,1.883,0,0,1,1.43.59l.4-.63a2.585,2.585,0,0,0-1.84-.69c-1.18,0-1.84.66-1.84,1.43,0,1.04.96,1.26,1.78,1.45.62.14,1.17.3,1.17.78,0,.41-.36.69-1.04.69a2.34,2.34,0,0,1-1.62-.69ZM21.42,0h1.14l-2.1-2.64,2.08-2.19H21.41L19.08-2.38V-6.67h-.9V0h.9V-1.34l.73-.74Zm1.42-2.42A2.415,2.415,0,0,0,25.34.12,2.717,2.717,0,0,0,27.28-.6l-.42-.59a2.053,2.053,0,0,1-1.43.57,1.584,1.584,0,0,1-1.64-1.5h3.82v-.22a2.375,2.375,0,0,0-2.35-2.61A2.429,2.429,0,0,0,22.84-2.42Zm2.42-1.79a1.429,1.429,0,0,1,1.47,1.44H23.78A1.479,1.479,0,0,1,25.26-4.21ZM30.07.12a1.282,1.282,0,0,0,.94-.31l-.23-.68a.692.692,0,0,1-.49.19c-.31,0-.47-.25-.47-.59V-4.04h.98v-.79h-.98V-6.15h-.9v1.32h-.8v.79h.8v2.97A1.051,1.051,0,0,0,30.07.12Z" transform="translate(259.472 253.167)" fill="#fcfdff"/>
      <g id="Rectangle_2486" data-name="Rectangle 2486" transform="translate(14.782 233.559)" fill="none" stroke="#4b9ade" stroke-width="2">
        <rect width="152.996" height="33.26" rx="2" stroke="none"/>
        <rect x="1" y="1" width="150.996" height="31.26" rx="1" fill="none"/>
      </g>
      <path id="Path_3075" data-name="Path 3075" d="M-28.645,0h4.48V-.88h-3.48V-2.96h3.41v-.88h-3.41V-5.79h3.48v-.88h-4.48Zm8.8,0h1.02l-1.82-2.48,1.71-2.35h-1.02l-1.24,1.74-1.25-1.74h-1.02l1.7,2.35L-23.575,0h1.02l1.36-1.88Zm2.72,1.84V-.7a1.927,1.927,0,0,0,1.58.82c1.26,0,2.15-.96,2.15-2.54s-.89-2.53-2.15-2.53a1.968,1.968,0,0,0-1.58.81v-.69h-.9V1.84Zm2.79-4.26c0,1.01-.55,1.74-1.45,1.74a1.681,1.681,0,0,1-1.34-.71V-3.44a1.654,1.654,0,0,1,1.34-.71C-14.885-4.15-14.335-3.42-14.335-2.42Zm4.22,2.54a2.394,2.394,0,0,0,2.44-2.54,2.392,2.392,0,0,0-2.44-2.53,2.4,2.4,0,0,0-2.44,2.53A2.4,2.4,0,0,0-10.115.12Zm0-.8a1.573,1.573,0,0,1-1.5-1.74,1.57,1.57,0,0,1,1.5-1.73,1.564,1.564,0,0,1,1.5,1.73A1.567,1.567,0,0,1-10.115-.68Zm3.58.68h.9V-3.36a1.706,1.706,0,0,1,1.27-.7,1.416,1.416,0,0,1,.31.03v-.91a2.052,2.052,0,0,0-1.58.85v-.74h-.9Zm4.71.12a1.282,1.282,0,0,0,.94-.31l-.23-.68a.692.692,0,0,1-.49.19c-.31,0-.47-.25-.47-.59V-4.04h.98v-.79h-.98V-6.15h-.9v1.32h-.8v.79h.8v2.97A1.051,1.051,0,0,0-1.825.12ZM8.945-3.33a3.28,3.28,0,0,0-3.36-3.45,3.28,3.28,0,0,0-3.36,3.45A3.28,3.28,0,0,0,5.585.12a3.45,3.45,0,0,0,1.75-.45l.61.67.69-.59L8.045-.9A3.512,3.512,0,0,0,8.945-3.33ZM5.585-.77a2.339,2.339,0,0,1-2.33-2.56,2.334,2.334,0,0,1,2.33-2.56,2.345,2.345,0,0,1,2.33,2.56,2.8,2.8,0,0,1-.53,1.7l-.88-.98-.7.59.89.98A2.336,2.336,0,0,1,5.585-.77ZM13.4,0h.9V-4.83h-.9v3.47a1.746,1.746,0,0,1-1.34.68c-.62,0-1.02-.24-1.02-1.04V-4.83h-.9v3.41A1.363,1.363,0,0,0,11.675.12,2.386,2.386,0,0,0,13.4-.66Zm4.47.12a2.394,2.394,0,0,0,2.44-2.54,2.392,2.392,0,0,0-2.44-2.53,2.4,2.4,0,0,0-2.44,2.53A2.4,2.4,0,0,0,17.865.12Zm0-.8a1.573,1.573,0,0,1-1.5-1.74,1.57,1.57,0,0,1,1.5-1.73,1.564,1.564,0,0,1,1.5,1.73A1.567,1.567,0,0,1,17.865-.68Zm4.91.8a1.282,1.282,0,0,0,.94-.31l-.23-.68A.692.692,0,0,1,23-.68c-.31,0-.47-.25-.47-.59V-4.04h.98v-.79h-.98V-6.15h-.9v1.32h-.8v.79h.8v2.97A1.051,1.051,0,0,0,22.775.12ZM24.2-2.42A2.415,2.415,0,0,0,26.7.12a2.717,2.717,0,0,0,1.94-.72l-.42-.59a2.053,2.053,0,0,1-1.43.57,1.584,1.584,0,0,1-1.64-1.5h3.82v-.22a2.375,2.375,0,0,0-2.35-2.61A2.429,2.429,0,0,0,24.2-2.42Zm2.42-1.79a1.429,1.429,0,0,1,1.47,1.44h-2.95A1.479,1.479,0,0,1,26.625-4.21Z" transform="translate(90.912 253.167)" fill="#2682de"/>
      <g id="Group_3037" data-name="Group 3037" transform="translate(-831.218 -129.637)">
        <rect id="Rectangle_3354" data-name="Rectangle 3354" width="322.794" height="133.918" rx="2" transform="translate(846 207)" fill="#fff"/>
        <path id="Path_3065" data-name="Path 3065" d="M3.776-.808a1.025,1.025,0,0,1-.76.32A1.2,1.2,0,0,1,2.464-.64a1.365,1.365,0,0,0-.632-.176,1.33,1.33,0,0,0-.416.072A1.277,1.277,0,0,0,2.024-1.8a1.153,1.153,0,0,0-.048-.344h.968v-.432h-1.2c-.056-.08-.12-.152-.176-.224A1.544,1.544,0,0,1,1.1-3.832,1.056,1.056,0,0,1,2.24-4.856,1.115,1.115,0,0,1,3.256-4.2l.536-.32a1.742,1.742,0,0,0-1.616-.9A1.7,1.7,0,0,0,.384-3.84a1.773,1.773,0,0,0,.56,1.2c.016.024.04.04.056.064H.152v.432h1.16a1.04,1.04,0,0,1,.12.48c0,.48-.384.92-1.064,1.224l.24.5a2.24,2.24,0,0,1,.944-.32A1.351,1.351,0,0,1,2.2-.088,1.6,1.6,0,0,0,2.984.1a1.506,1.506,0,0,0,1.08-.376ZM4.816,0H8.48V-.592H5.864C7.352-1.768,8.456-2.76,8.456-3.848A1.624,1.624,0,0,0,6.664-5.416a2.311,2.311,0,0,0-1.856.84l.408.424a1.784,1.784,0,0,1,1.448-.672,1,1,0,0,1,1.112.976c0,.92-1.04,1.808-2.96,3.32ZM10-.552a1.855,1.855,0,0,0,1.48.64c1.5,0,2.168-1.312,2.168-2.752,0-1.456-.568-2.76-2.064-2.76A1.754,1.754,0,0,0,9.72-3.68a1.619,1.619,0,0,0,1.752,1.7,1.914,1.914,0,0,0,1.5-.832,1.949,1.949,0,0,1,.008.216c0,1.008-.424,2.088-1.5,2.088a1.378,1.378,0,0,1-1.144-.544Zm2.952-2.792a1.6,1.6,0,0,1-1.328.792A1.1,1.1,0,0,1,10.392-3.7a1.164,1.164,0,0,1,1.224-1.128C12.544-4.832,12.9-4.008,12.952-3.344ZM14.8,1.016a1.544,1.544,0,0,0,.656-1.208.543.543,0,0,0-.5-.608.428.428,0,0,0-.424.432.381.381,0,0,0,.384.408.371.371,0,0,0,.112-.016,1.194,1.194,0,0,1-.52.744Zm1.736-3.68c0,1.3.576,2.76,2.04,2.76s2.04-1.464,2.04-2.76-.584-2.752-2.04-2.752S16.536-3.968,16.536-2.664Zm3.4,0c0,1.064-.344,2.168-1.36,2.168s-1.36-1.1-1.36-2.168.344-2.16,1.36-2.16S19.936-3.728,19.936-2.664Zm1.736,0c0,1.3.576,2.76,2.04,2.76s2.04-1.464,2.04-2.76-.584-2.752-2.04-2.752S21.672-3.968,21.672-2.664Zm3.4,0c0,1.064-.344,2.168-1.36,2.168s-1.36-1.1-1.36-2.168.344-2.16,1.36-2.16S25.072-3.728,25.072-2.664Zm1.736,0c0,1.3.576,2.76,2.04,2.76s2.04-1.464,2.04-2.76-.584-2.752-2.04-2.752S26.808-3.968,26.808-2.664Zm3.4,0c0,1.064-.344,2.168-1.36,2.168s-1.36-1.1-1.36-2.168.344-2.16,1.36-2.16S30.208-3.728,30.208-2.664Z" transform="translate(852.316 221.438)" fill="#5f80a5"/>
        <path id="Path_3067" data-name="Path 3067" d="M3.3-.707a.9.9,0,0,1-.665.28A1.053,1.053,0,0,1,2.156-.56,1.2,1.2,0,0,0,1.6-.714a1.164,1.164,0,0,0-.364.063,1.118,1.118,0,0,0,.532-.924,1.009,1.009,0,0,0-.042-.3h.847v-.378H1.526c-.049-.07-.105-.133-.154-.2a1.351,1.351,0,0,1-.413-.9.924.924,0,0,1,1-.9.975.975,0,0,1,.889.574l.469-.28A1.524,1.524,0,0,0,1.9-4.739,1.485,1.485,0,0,0,.336-3.36a1.552,1.552,0,0,0,.49,1.05c.014.021.035.035.049.056H.133v.378H1.148a.91.91,0,0,1,.105.42c0,.42-.336.805-.931,1.071l.21.434a1.96,1.96,0,0,1,.826-.28,1.182,1.182,0,0,1,.567.154,1.4,1.4,0,0,0,.686.168,1.318,1.318,0,0,0,.945-.329ZM4.214,0H7.42V-.518H5.131C6.433-1.547,7.4-2.415,7.4-3.367A1.421,1.421,0,0,0,5.831-4.739,2.022,2.022,0,0,0,4.207-4l.357.371a1.561,1.561,0,0,1,1.267-.588.873.873,0,0,1,.973.854c0,.805-.91,1.582-2.59,2.905Zm4.41-.665a1.906,1.906,0,0,0,1.645.749,1.529,1.529,0,0,0,1.659-1.54,1.43,1.43,0,0,0-1.484-1.491,1.579,1.579,0,0,0-1.092.42V-4.151h2.275v-.518H8.771v2.52L9.2-2a1.464,1.464,0,0,1,1.078-.441.984.984,0,0,1,1.071,1.008,1.008,1.008,0,0,1-1.078,1A1.537,1.537,0,0,1,8.981-1.05ZM13.16.889a1.351,1.351,0,0,0,.574-1.057A.475.475,0,0,0,13.293-.7a.375.375,0,0,0-.371.378.333.333,0,0,0,.336.357.324.324,0,0,0,.1-.014A1.045,1.045,0,0,1,12.9.672Zm1.519-3.22c0,1.134.5,2.415,1.785,2.415S18.249-1.2,18.249-2.331s-.511-2.408-1.785-2.408S14.679-3.472,14.679-2.331Zm2.975,0c0,.931-.3,1.9-1.19,1.9s-1.19-.966-1.19-1.9.3-1.89,1.19-1.89S17.654-3.262,17.654-2.331Zm1.519,0c0,1.134.5,2.415,1.785,2.415S22.743-1.2,22.743-2.331s-.511-2.408-1.785-2.408S19.173-3.472,19.173-2.331Zm2.975,0c0,.931-.3,1.9-1.19,1.9s-1.19-.966-1.19-1.9.3-1.89,1.19-1.89S22.148-3.262,22.148-2.331Zm1.519,0c0,1.134.5,2.415,1.785,2.415S27.237-1.2,27.237-2.331s-.511-2.408-1.785-2.408S23.667-3.472,23.667-2.331Zm2.975,0c0,.931-.3,1.9-1.19,1.9s-1.19-.966-1.19-1.9.3-1.89,1.19-1.89S26.642-3.262,26.642-2.331Z" transform="translate(852.316 268.64)" fill="#5f80a5"/>
        <path id="Path_3066" data-name="Path 3066" d="M3.776-.808a1.025,1.025,0,0,1-.76.32A1.2,1.2,0,0,1,2.464-.64a1.365,1.365,0,0,0-.632-.176,1.33,1.33,0,0,0-.416.072A1.277,1.277,0,0,0,2.024-1.8a1.153,1.153,0,0,0-.048-.344h.968v-.432h-1.2c-.056-.08-.12-.152-.176-.224A1.544,1.544,0,0,1,1.1-3.832,1.056,1.056,0,0,1,2.24-4.856,1.115,1.115,0,0,1,3.256-4.2l.536-.32a1.742,1.742,0,0,0-1.616-.9A1.7,1.7,0,0,0,.384-3.84a1.773,1.773,0,0,0,.56,1.2c.016.024.04.04.056.064H.152v.432h1.16a1.04,1.04,0,0,1,.12.48c0,.48-.384.92-1.064,1.224l.24.5a2.24,2.24,0,0,1,.944-.32A1.351,1.351,0,0,1,2.2-.088,1.6,1.6,0,0,0,2.984.1a1.506,1.506,0,0,0,1.08-.376ZM4.816,0H8.48V-.592H5.864C7.352-1.768,8.456-2.76,8.456-3.848A1.624,1.624,0,0,0,6.664-5.416a2.311,2.311,0,0,0-1.856.84l.408.424a1.784,1.784,0,0,1,1.448-.672,1,1,0,0,1,1.112.976c0,.92-1.04,1.808-2.96,3.32ZM10.3,0h.736l2.184-4.88v-.456H9.576v.592h2.872Zm3.368,1.016A1.544,1.544,0,0,0,14.32-.192a.543.543,0,0,0-.5-.608.428.428,0,0,0-.424.432.381.381,0,0,0,.384.408.371.371,0,0,0,.112-.016,1.194,1.194,0,0,1-.52.744ZM15.4-2.664c0,1.3.576,2.76,2.04,2.76s2.04-1.464,2.04-2.76S18.9-5.416,17.44-5.416,15.4-3.968,15.4-2.664Zm3.4,0C18.8-1.6,18.456-.5,17.44-.5s-1.36-1.1-1.36-2.168.344-2.16,1.36-2.16S18.8-3.728,18.8-2.664Zm1.736,0c0,1.3.576,2.76,2.04,2.76s2.04-1.464,2.04-2.76-.584-2.752-2.04-2.752S20.536-3.968,20.536-2.664Zm3.4,0c0,1.064-.344,2.168-1.36,2.168s-1.36-1.1-1.36-2.168.344-2.16,1.36-2.16S23.936-3.728,23.936-2.664Zm1.736,0c0,1.3.576,2.76,2.04,2.76s2.04-1.464,2.04-2.76-.584-2.752-2.04-2.752S25.672-3.968,25.672-2.664Zm3.4,0c0,1.064-.344,2.168-1.36,2.168s-1.36-1.1-1.36-2.168.344-2.16,1.36-2.16S29.072-3.728,29.072-2.664Z" transform="translate(852.316 245.982)" fill="#5f80a5"/>
        <path id="Path_3068" data-name="Path 3068" d="M3.776-.808a1.025,1.025,0,0,1-.76.32A1.2,1.2,0,0,1,2.464-.64a1.365,1.365,0,0,0-.632-.176,1.33,1.33,0,0,0-.416.072A1.277,1.277,0,0,0,2.024-1.8a1.153,1.153,0,0,0-.048-.344h.968v-.432h-1.2c-.056-.08-.12-.152-.176-.224A1.544,1.544,0,0,1,1.1-3.832,1.056,1.056,0,0,1,2.24-4.856,1.115,1.115,0,0,1,3.256-4.2l.536-.32a1.742,1.742,0,0,0-1.616-.9A1.7,1.7,0,0,0,.384-3.84a1.773,1.773,0,0,0,.56,1.2c.016.024.04.04.056.064H.152v.432h1.16a1.04,1.04,0,0,1,.12.48c0,.48-.384.92-1.064,1.224l.24.5a2.24,2.24,0,0,1,.944-.32A1.351,1.351,0,0,1,2.2-.088,1.6,1.6,0,0,0,2.984.1a1.506,1.506,0,0,0,1.08-.376ZM4.816,0H8.48V-.592H5.864C7.352-1.768,8.456-2.76,8.456-3.848A1.624,1.624,0,0,0,6.664-5.416a2.311,2.311,0,0,0-1.856.84l.408.424a1.784,1.784,0,0,1,1.448-.672,1,1,0,0,1,1.112.976c0,.92-1.04,1.808-2.96,3.32ZM9.56-.784a2.25,2.25,0,0,0,1.9.88c1.176,0,1.888-.648,1.888-1.536a1.342,1.342,0,0,0-1.232-1.312,1.3,1.3,0,0,0,1.152-1.24c0-.9-.784-1.424-1.808-1.424a2.312,2.312,0,0,0-1.824.824L10-4.176a1.808,1.808,0,0,1,1.408-.648c.648,0,1.192.32,1.192.912,0,.616-.568.88-1.24.88-.216,0-.464,0-.552-.008v.608c.08-.008.328-.008.552-.008.784,0,1.328.28,1.328.944,0,.616-.472,1-1.248,1a1.853,1.853,0,0,1-1.488-.7Zm5.216,1.8a1.544,1.544,0,0,0,.656-1.208.543.543,0,0,0-.5-.608.428.428,0,0,0-.424.432.381.381,0,0,0,.384.408A.371.371,0,0,0,15,.024a1.194,1.194,0,0,1-.52.744Zm1.736-3.68c0,1.3.576,2.76,2.04,2.76s2.04-1.464,2.04-2.76-.584-2.752-2.04-2.752S16.512-3.968,16.512-2.664Zm3.4,0c0,1.064-.344,2.168-1.36,2.168s-1.36-1.1-1.36-2.168.344-2.16,1.36-2.16S19.912-3.728,19.912-2.664Zm1.736,0c0,1.3.576,2.76,2.04,2.76s2.04-1.464,2.04-2.76-.584-2.752-2.04-2.752S21.648-3.968,21.648-2.664Zm3.4,0C25.048-1.6,24.7-.5,23.688-.5s-1.36-1.1-1.36-2.168.344-2.16,1.36-2.16S25.048-3.728,25.048-2.664Zm1.736,0c0,1.3.576,2.76,2.04,2.76s2.04-1.464,2.04-2.76-.584-2.752-2.04-2.752S26.784-3.968,26.784-2.664Zm3.4,0C30.184-1.6,29.84-.5,28.824-.5s-1.36-1.1-1.36-2.168.344-2.16,1.36-2.16S30.184-3.728,30.184-2.664Z" transform="translate(852.316 295.07)" fill="#5f80a5"/>
        <path id="Path_2740" data-name="Path 2740" d="M20841.219-9386.814l-13.125-16.545v97.666h12.779Z" transform="translate(-19936.725 9623.514)" fill="#d7e7f4"/>
        <path id="Path_2841" data-name="Path 2841" d="M20828.094-9343.883v44.34h0Z" transform="translate(-19924.08 9617.364)" fill="#bdefe8"/>
        <path id="Path_3069" data-name="Path 3069" d="M3.776-.808a1.025,1.025,0,0,1-.76.32A1.2,1.2,0,0,1,2.464-.64a1.365,1.365,0,0,0-.632-.176,1.33,1.33,0,0,0-.416.072A1.277,1.277,0,0,0,2.024-1.8a1.153,1.153,0,0,0-.048-.344h.968v-.432h-1.2c-.056-.08-.12-.152-.176-.224A1.544,1.544,0,0,1,1.1-3.832,1.056,1.056,0,0,1,2.24-4.856,1.115,1.115,0,0,1,3.256-4.2l.536-.32a1.742,1.742,0,0,0-1.616-.9A1.7,1.7,0,0,0,.384-3.84a1.773,1.773,0,0,0,.56,1.2c.016.024.04.04.056.064H.152v.432h1.16a1.04,1.04,0,0,1,.12.48c0,.48-.384.92-1.064,1.224l.24.5a2.24,2.24,0,0,1,.944-.32A1.351,1.351,0,0,1,2.2-.088,1.6,1.6,0,0,0,2.984.1a1.506,1.506,0,0,0,1.08-.376ZM4.816,0H8.48V-.592H5.864C7.352-1.768,8.456-2.76,8.456-3.848A1.624,1.624,0,0,0,6.664-5.416a2.311,2.311,0,0,0-1.856.84l.408.424a1.784,1.784,0,0,1,1.448-.672,1,1,0,0,1,1.112.976c0,.92-1.04,1.808-2.96,3.32Zm5.936,0h.664V-5.336h-.584L9.5-3.96l.4.408.856-.9Zm2.28,1.016a1.544,1.544,0,0,0,.656-1.208.543.543,0,0,0-.5-.608.428.428,0,0,0-.424.432.381.381,0,0,0,.384.408.371.371,0,0,0,.112-.016,1.194,1.194,0,0,1-.52.744Zm1.736-3.68c0,1.3.576,2.76,2.04,2.76s2.04-1.464,2.04-2.76-.584-2.752-2.04-2.752S14.768-3.968,14.768-2.664Zm3.4,0c0,1.064-.344,2.168-1.36,2.168s-1.36-1.1-1.36-2.168.344-2.16,1.36-2.16S18.168-3.728,18.168-2.664Zm1.736,0c0,1.3.576,2.76,2.04,2.76s2.04-1.464,2.04-2.76-.584-2.752-2.04-2.752S19.9-3.968,19.9-2.664Zm3.4,0C23.3-1.6,22.96-.5,21.944-.5s-1.36-1.1-1.36-2.168.344-2.16,1.36-2.16S23.3-3.728,23.3-2.664Zm1.736,0c0,1.3.576,2.76,2.04,2.76s2.04-1.464,2.04-2.76-.584-2.752-2.04-2.752S25.04-3.968,25.04-2.664Zm3.4,0C28.44-1.6,28.1-.5,27.08-.5s-1.36-1.1-1.36-2.168.344-2.16,1.36-2.16S28.44-3.728,28.44-2.664Z" transform="translate(852.316 319.615)" fill="#5f80a5"/>
        <path id="Path_3070" data-name="Path 3070" d="M-2.04-2.664C-2.04-1.368-1.464.1,0,.1s2.04-1.464,2.04-2.76S1.456-5.416,0-5.416-2.04-3.968-2.04-2.664Zm3.4,0C1.36-1.6,1.016-.5,0-.5S-1.36-1.6-1.36-2.664s.344-2.16,1.36-2.16S1.36-3.728,1.36-2.664Z" transform="translate(888.285 333.094)" fill="#5f80a5"/>
        <path id="Path_3071" data-name="Path 3071" d="M-7.056,0h3.664V-.592H-6.008C-4.52-1.768-3.416-2.76-3.416-3.848A1.624,1.624,0,0,0-5.208-5.416a2.311,2.311,0,0,0-1.856.84l.408.424a1.784,1.784,0,0,1,1.448-.672A1,1,0,0,1-4.1-3.848c0,.92-1.04,1.808-2.96,3.32Zm4.92-2.664C-2.136-1.368-1.56.1-.1.1s2.04-1.464,2.04-2.76S1.36-5.416-.1-5.416-2.136-3.968-2.136-2.664Zm3.4,0C1.264-1.6.92-.5-.1-.5s-1.36-1.1-1.36-2.168.344-2.16,1.36-2.16S1.264-3.728,1.264-2.664ZM3-2.664C3-1.368,3.576.1,5.04.1s2.04-1.464,2.04-2.76S6.5-5.416,5.04-5.416,3-3.968,3-2.664Zm3.4,0C6.4-1.6,6.056-.5,5.04-.5S3.68-1.6,3.68-2.664s.344-2.16,1.36-2.16S6.4-3.728,6.4-2.664Z" transform="translate(955.64 333.094)" fill="#5f80a5"/>
        <path id="Path_3073" data-name="Path 3073" d="M-6.206-2.324c0,1.267.5,2.408,1.8,2.408A1.533,1.533,0,0,0-2.769-1.442,1.411,1.411,0,0,0-4.294-2.933,1.678,1.678,0,0,0-5.617-2.2a1.582,1.582,0,0,1-.007-.182c0-.917.413-1.834,1.316-1.834a1.2,1.2,0,0,1,1,.476l.294-.434a1.624,1.624,0,0,0-1.3-.56C-5.617-4.739-6.206-3.591-6.206-2.324Zm2.849.9a1.01,1.01,0,0,1-1.071.987c-.812,0-1.12-.714-1.176-1.295a1.435,1.435,0,0,1,1.169-.7A.967.967,0,0,1-3.356-1.421Zm1.5-.91c0,1.134.5,2.415,1.785,2.415S1.712-1.2,1.712-2.331,1.2-4.739-.073-4.739-1.858-3.472-1.858-2.331Zm2.975,0c0,.931-.3,1.9-1.19,1.9s-1.19-.966-1.19-1.9.3-1.89,1.19-1.89S1.117-3.262,1.117-2.331Zm1.519,0c0,1.134.5,2.415,1.785,2.415S6.205-1.2,6.205-2.331,5.694-4.739,4.42-4.739,2.635-3.472,2.635-2.331Zm2.975,0c0,.931-.3,1.9-1.19,1.9S3.23-1.4,3.23-2.331s.3-1.89,1.19-1.89S5.61-3.262,5.61-2.331Z" transform="translate(1084.616 332.094)" fill="#5f80a5"/>
        <path id="Path_3074" data-name="Path 3074" d="M-8.015-1.183c0,.8.749,1.267,1.673,1.267s1.673-.476,1.673-1.267A1.385,1.385,0,0,0-5.782-2.408a1.234,1.234,0,0,0,1.043-1.12c0-.84-.833-1.211-1.6-1.211s-1.6.371-1.6,1.211A1.227,1.227,0,0,0-6.9-2.408,1.385,1.385,0,0,0-8.015-1.183Zm2.688-2.268c0,.567-.728.756-1.015.805-.28-.049-1.015-.238-1.015-.805,0-.483.448-.77,1.015-.77S-5.327-3.934-5.327-3.451Zm.07,2.2c0,.5-.511.812-1.085.812s-1.092-.308-1.092-.812c0-.609.8-.868,1.092-.9C-6.055-2.114-5.257-1.855-5.257-1.246Zm1.512-1.085c0,1.134.5,2.415,1.785,2.415S-.175-1.2-.175-2.331-.686-4.739-1.96-4.739-3.745-3.472-3.745-2.331Zm2.975,0c0,.931-.3,1.9-1.19,1.9s-1.19-.966-1.19-1.9.3-1.89,1.19-1.89S-.77-3.262-.77-2.331Zm1.519,0c0,1.134.5,2.415,1.785,2.415S4.319-1.2,4.319-2.331,3.808-4.739,2.534-4.739.749-3.472.749-2.331Zm2.975,0c0,.931-.3,1.9-1.19,1.9s-1.19-.966-1.19-1.9.3-1.89,1.19-1.89S3.724-3.262,3.724-2.331Zm3.108.154H8.176v-.364H6.832V-3.99h-.4v1.449H5.089v.364H6.433V-.686h.4Z" transform="translate(1147.186 332.094)" fill="#5f80a5"/>
        <line id="Line_2031" data-name="Line 2031" x2="271.627" transform="translate(891.024 243.816)" fill="none" stroke="#ebf2fa" stroke-width="1"/>
        <line id="Line_2099" data-name="Line 2099" x2="271.627" transform="translate(891.024 219.272)" fill="none" stroke="#ebf2fa" stroke-width="1"/>
        <line id="Line_2031-2" data-name="Line 2031" x2="271.627" transform="translate(891.024 268.124)" fill="none" stroke="#ebf2fa" stroke-width="1"/>
        <line id="Line_2031-3" data-name="Line 2031" x2="271.627" transform="translate(891.024 292.905)" fill="none" stroke="#ebf2fa" stroke-width="1"/>
        <line id="Line_2031-4" data-name="Line 2031" x2="271.627" transform="translate(891.024 317.449)" fill="none" stroke="#ebf2fa" stroke-width="1"/>
        <path id="Path_2762" data-name="Path 2762" d="M20826.387-9407.663l34.266,51.063,163.543,39.744h74.424" transform="translate(-19936.287 9624.617)" fill="none" stroke="#91afcc" stroke-width="4"/>
        <g transform="matrix(1, 0, 0, 1, 786.22, 94.64)" filter="url(#Path_2770)">
          <path id="Path_2770-2" data-name="Path 2770" d="M20822.117-9400.853l12.873,19.288,3.232,4.492" transform="translate(-20718.44 9523.03)" fill="none" stroke="#2682de" stroke-width="4"/>
        </g>
        <g id="Group_2482" data-name="Group 2482" transform="translate(904.388 208.059)">
          <line id="Line_2032" data-name="Line 2032" y2="3.79" transform="translate(0 0)" fill="none" stroke="#e1e8f0" stroke-width="1"/>
          <line id="Line_2032-2" data-name="Line 2032" y2="3.79" transform="translate(0 6.949)" fill="none" stroke="#e1e8f0" stroke-width="1"/>
          <line id="Line_2032-3" data-name="Line 2032" y2="4.422" transform="translate(0 13.266)" fill="none" stroke="#e1e8f0" stroke-width="1"/>
          <line id="Line_2032-4" data-name="Line 2032" y2="3.79" transform="translate(0 20.214)" fill="none" stroke="#e1e8f0" stroke-width="1"/>
          <line id="Line_2032-5" data-name="Line 2032" y2="4.422" transform="translate(0 26.531)" fill="none" stroke="#e1e8f0" stroke-width="1"/>
          <line id="Line_2032-6" data-name="Line 2032" y2="4.422" transform="translate(0 33.48)" fill="none" stroke="#e1e8f0" stroke-width="1"/>
          <line id="Line_2032-7" data-name="Line 2032" y2="3.79" transform="translate(0 40.428)" fill="none" stroke="#e1e8f0" stroke-width="1"/>
          <line id="Line_2032-8" data-name="Line 2032" y2="4.422" transform="translate(0 46.745)" fill="none" stroke="#e1e8f0" stroke-width="1"/>
          <line id="Line_2032-9" data-name="Line 2032" y2="4.422" transform="translate(0 53.694)" fill="none" stroke="#e1e8f0" stroke-width="1"/>
          <line id="Line_2032-10" data-name="Line 2032" y2="3.79" transform="translate(0 60.642)" fill="none" stroke="#e1e8f0" stroke-width="1"/>
          <line id="Line_2032-11" data-name="Line 2032" y2="4.422" transform="translate(0 66.959)" fill="none" stroke="#e1e8f0" stroke-width="1"/>
          <line id="Line_2032-12" data-name="Line 2032" y2="4.422" transform="translate(0 73.908)" fill="none" stroke="#e1e8f0" stroke-width="1"/>
          <line id="Line_2032-13" data-name="Line 2032" y2="3.79" transform="translate(0 80.856)" fill="none" stroke="#e1e8f0" stroke-width="1"/>
          <line id="Line_2032-14" data-name="Line 2032" y2="4.422" transform="translate(0 87.173)" fill="none" stroke="#e1e8f0" stroke-width="1"/>
          <line id="Line_2032-15" data-name="Line 2032" y2="3.79" transform="translate(0 94.122)" fill="none" stroke="#e1e8f0" stroke-width="1"/>
          <line id="Line_2032-16" data-name="Line 2032" y2="3.79" transform="translate(0 101.071)" fill="none" stroke="#e1e8f0" stroke-width="1"/>
          <line id="Line_2032-17" data-name="Line 2032" y2="4.422" transform="translate(0 107.387)" fill="none" stroke="#e1e8f0" stroke-width="1"/>
          <line id="Line_2032-18" data-name="Line 2032" y2="3.79" transform="translate(0 114.336)" fill="none" stroke="#e1e8f0" stroke-width="1"/>
          <line id="Line_2032-19" data-name="Line 2032" y2="3.79" transform="translate(0 121.285)" fill="none" stroke="#e1e8f0" stroke-width="1"/>
          <line id="Line_2032-20" data-name="Line 2032" y2="4.422" transform="translate(0 127.602)" fill="none" stroke="#e1e8f0" stroke-width="1"/>
        </g>
        <g id="Ellipse_436" data-name="Ellipse 436" transform="translate(900.297 234.315)" fill="#fff" stroke="#2682de" stroke-width="1.3">
          <circle cx="3.79" cy="3.79" r="3.79" stroke="none"/>
          <circle cx="3.79" cy="3.79" r="3.14" fill="none"/>
        </g>
        <rect id="Rectangle_3716" data-name="Rectangle 3716" width="3.719" height="11.156" transform="translate(887.651 212.206)" fill="#fff"/>
        <path id="Path_3072" data-name="Path 3072" d="M-4.576,0h.664V-1.352h.752v-.584h-.752v-3.4h-.912L-7.112-1.9v.552h2.536Zm0-4.72v2.784H-6.448Zm2.32,2.056c0,1.3.576,2.76,2.04,2.76s2.04-1.464,2.04-2.76S1.24-5.416-.216-5.416-2.256-3.968-2.256-2.664Zm3.4,0C1.144-1.6.8-.5-.216-.5s-1.36-1.1-1.36-2.168.344-2.16,1.36-2.16S1.144-3.728,1.144-2.664Zm1.736,0c0,1.3.576,2.76,2.04,2.76s2.04-1.464,2.04-2.76S6.376-5.416,4.92-5.416,2.88-3.968,2.88-2.664Zm3.4,0C6.28-1.6,5.936-.5,4.92-.5S3.56-1.6,3.56-2.664s.344-2.16,1.36-2.16S6.28-3.728,6.28-2.664Z" transform="translate(1020.184 333.094)" fill="#5f80a5"/>
      </g>
      <text id="_27_000.00" data-name="£27,000.00" transform="translate(113.576 56.226)" fill="#e33d5a" font-size="19" font-family="ProximaNova-Medium, Proxima Nova" font-weight="500" letter-spacing="0.02em"><tspan x="0" y="0">£27,000.00</tspan></text>
      <text id="_-_2_000.00" data-name="-£2,000.00" transform="translate(236.576 56.226)" fill="#102f54" font-size="19" font-family="ProximaNova-Medium, Proxima Nova" font-weight="500" letter-spacing="0.02em"><tspan x="0" y="0">-£2,000.00</tspan></text>
    </g>
  </g>
</svg>
