<svg xmlns="http://www.w3.org/2000/svg" xmlns:xlink="http://www.w3.org/1999/xlink" width="69" height="69" viewBox="0 0 69 69">
  <defs>
    <linearGradient id="linear-gradient" x1="0.373" y1="0.322" x2="0.803" y2="0.91" gradientUnits="objectBoundingBox">
      <stop offset="0" stop-color="#e1effc"/>
      <stop offset="1" stop-color="#d0e4f7"/>
    </linearGradient>
    <linearGradient id="linear-gradient-2" x1="0.5" x2="0" y2="1" gradientUnits="objectBoundingBox">
      <stop offset="0" stop-color="#fff"/>
      <stop offset="1" stop-color="#f7fafa"/>
    </linearGradient>
    <filter id="Rectangle_4077" x="-16.5" y="19.5" width="67" height="57" filterUnits="userSpaceOnUse">
      <feOffset dy="1" input="SourceAlpha"/>
      <feGaussianBlur stdDeviation="1.5" result="blur"/>
      <feFlood flood-color="#7996b4" flood-opacity="0.173"/>
      <feComposite operator="in" in2="blur"/>
      <feComposite in="SourceGraphic"/>
    </filter>
    <clipPath id="clip-path">
      <circle id="Ellipse_575" data-name="Ellipse 575" cx="34.5" cy="34.5" r="34.5" transform="translate(294 2255)" fill="url(#linear-gradient)"/>
    </clipPath>
    <filter id="Rectangle_4075" x="-16.5" y="19.5" width="67" height="57" filterUnits="userSpaceOnUse">
      <feOffset dy="1" input="SourceAlpha"/>
      <feGaussianBlur stdDeviation="1.5" result="blur-2"/>
      <feFlood flood-color="#7996b4" flood-opacity="0.173"/>
      <feComposite operator="in" in2="blur-2"/>
      <feComposite in="SourceGraphic"/>
    </filter>
    <clipPath id="clip-path-2">
      <g transform="matrix(1, 0, 0, 1, 0, 0)" filter="url(#Rectangle_4077)">
        <path id="Rectangle_4077-2" data-name="Rectangle 4077" d="M0,0H56a2,2,0,0,1,2,2V48a0,0,0,0,1,0,0H0a0,0,0,0,1,0,0V0A0,0,0,0,1,0,0Z" transform="translate(282 2278)" fill="url(#linear-gradient-2)"/>
      </g>
    </clipPath>
    <linearGradient id="linear-gradient-4" x1="0.455" y1="0.452" x2="0.366" y2="1" gradientUnits="objectBoundingBox">
      <stop offset="0" stop-color="#bdefe8"/>
      <stop offset="1" stop-color="#9ce3e0"/>
    </linearGradient>
    <filter id="Path_3240" x="-4.656" y="20.022" width="66.872" height="39.076" filterUnits="userSpaceOnUse">
      <feOffset dy="1" input="SourceAlpha"/>
      <feGaussianBlur stdDeviation="1.5" result="blur-3"/>
      <feFlood flood-color="#7996b4" flood-opacity="0.11"/>
      <feComposite operator="in" in2="blur-3"/>
      <feComposite in="SourceGraphic"/>
    </filter>
    <linearGradient id="linear-gradient-5" x1="0.988" y1="0.388" x2="0.5" y2="0.978" gradientUnits="objectBoundingBox">
      <stop offset="0" stop-color="#badaf5"/>
      <stop offset="1" stop-color="#a8ceed"/>
    </linearGradient>
    <filter id="Line_2214" x="-9.67" y="15.796" width="76.9" height="49.246" filterUnits="userSpaceOnUse">
      <feOffset dy="2" input="SourceAlpha"/>
      <feGaussianBlur stdDeviation="3" result="blur-4"/>
      <feFlood flood-color="#7996b4" flood-opacity="0.431"/>
      <feComposite operator="in" in2="blur-4"/>
      <feComposite in="SourceGraphic"/>
    </filter>
    <filter id="Path_3240-2" x="25.344" y="35.5" width="36.872" height="49" filterUnits="userSpaceOnUse">
      <feOffset dy="1" input="SourceAlpha"/>
      <feGaussianBlur stdDeviation="1.5" result="blur-5"/>
      <feFlood flood-color="#7996b4" flood-opacity="0.11"/>
      <feComposite operator="in" in2="blur-5"/>
      <feComposite in="SourceGraphic"/>
    </filter>
    <filter id="Line_2214-2" x="-9.67" y="15.796" width="76.9" height="49.246" filterUnits="userSpaceOnUse">
      <feOffset dy="2" input="SourceAlpha"/>
      <feGaussianBlur stdDeviation="3" result="blur-6"/>
      <feFlood flood-color="#7996b4" flood-opacity="0.431"/>
      <feComposite operator="in" in2="blur-6"/>
      <feComposite in="SourceGraphic"/>
    </filter>
    <linearGradient id="linear-gradient-7" x1="0.5" x2="0.5" y2="1" gradientUnits="objectBoundingBox">
      <stop offset="0" stop-color="#fff" stop-opacity="0.576"/>
      <stop offset="1" stop-color="#fff"/>
    </linearGradient>
    <filter id="Rectangle_4076" x="15.928" y="17" width="28.145" height="66" filterUnits="userSpaceOnUse">
      <feOffset dy="3" input="SourceAlpha"/>
      <feGaussianBlur stdDeviation="3" result="blur-7"/>
      <feFlood flood-color="#a2b9d0" flood-opacity="0.396"/>
      <feComposite operator="in" in2="blur-7"/>
      <feComposite in="SourceGraphic"/>
    </filter>
    <linearGradient id="linear-gradient-8" x1="0.5" x2="1.068" y2="1.123" gradientUnits="objectBoundingBox">
      <stop offset="0" stop-color="#102f54"/>
      <stop offset="1" stop-color="#b7cae3"/>
    </linearGradient>
    <linearGradient id="linear-gradient-9" x1="0.334" y1="0.073" x2="1.031" y2="1.107" gradientUnits="objectBoundingBox">
      <stop offset="0" stop-color="#18365b"/>
      <stop offset="1" stop-color="#a2b6d1"/>
    </linearGradient>
    <linearGradient id="linear-gradient-10" x2="1.065" y2="1.103" xlink:href="#linear-gradient-8"/>
  </defs>
  <g id="Mask_Group_128" data-name="Mask Group 128" transform="translate(-294 -2255)" clip-path="url(#clip-path)">
    <g id="Group_3384" data-name="Group 3384">
      <g transform="matrix(1, 0, 0, 1, 294, 2255)" filter="url(#Rectangle_4075)">
        <path id="Rectangle_4075-2" data-name="Rectangle 4075" d="M0,0H56a2,2,0,0,1,2,2V48a0,0,0,0,1,0,0H0a0,0,0,0,1,0,0V0A0,0,0,0,1,0,0Z" transform="translate(-12 23)" fill="url(#linear-gradient-2)"/>
      </g>
      <g id="Mask_Group_127" data-name="Mask Group 127" clip-path="url(#clip-path-2)">
        <g id="Group_3383" data-name="Group 3383">
          <g id="Group_3253" data-name="Group 3253" transform="translate(247.061 260.739)">
            <g transform="matrix(1, 0, 0, 1, 46.94, 1994.26)" filter="url(#Path_3240)">
              <path id="Path_3240-3" data-name="Path 3240" d="M0,0,57.872,30.076H0Z" transform="translate(-0.16 23.52)" fill="url(#linear-gradient-4)"/>
            </g>
            <path id="Path_3241" data-name="Path 3241" d="M0,0,57.872,30.225V55.477H0Z" transform="translate(46.784 2017.784)" fill="url(#linear-gradient-5)"/>
            <g transform="matrix(1, 0, 0, 1, 46.94, 1994.26)" filter="url(#Line_2214)">
              <line id="Line_2214-3" data-name="Line 2214" x1="58.439" y1="30.359" transform="translate(-0.44 23.24)" fill="none" stroke="#237ed8" stroke-width="1"/>
            </g>
          </g>
          <g transform="matrix(1, 0, 0, 1, 294, 2255)" filter="url(#Path_3240-2)">
            <path id="Path_3240-4" data-name="Path 3240" d="M30,15.477l27.872,14.6v25.4H30Z" transform="translate(-0.16 23.52)" fill="url(#linear-gradient-4)"/>
          </g>
          <g transform="matrix(1, 0, 0, 1, 294, 2255)" filter="url(#Line_2214-2)">
            <line id="Line_2214-4" data-name="Line 2214" x1="58.439" y1="30.359" transform="translate(-0.44 23.24)" fill="none" stroke="#237ed8" stroke-width="1"/>
          </g>
          <g transform="matrix(1, 0, 0, 1, 294, 2255)" filter="url(#Rectangle_4076)">
            <rect id="Rectangle_4076-2" data-name="Rectangle 4076" width="10.145" height="48" rx="1" transform="translate(24.93 23)" fill="url(#linear-gradient-7)"/>
          </g>
          <g id="Group_3381" data-name="Group 3381" transform="translate(321.2 2283.198)">
            <path id="Path_1619" data-name="Path 1619" d="M20679.375-11314.007a3.305,3.305,0,0,1,1.047-.187,1.265,1.265,0,0,1,1.785-.16c.945.8,1.215,4.07,1.215,4.07a23.913,23.913,0,0,0-1.934-3A1.7,1.7,0,0,0,20679.375-11314.007Z" transform="translate(-20679.375 11315.914)" fill="url(#linear-gradient-8)"/>
            <path id="Path_1620" data-name="Path 1620" d="M20637.689-11382.482s.92,1.381-.7,2.986,1.211,1.924,1.211,1.924-2.73,0-2.738-2.2a1.174,1.174,0,0,1,.8-1.082A2.991,2.991,0,0,0,20637.689-11382.482Z" transform="translate(-20633.365 11382.482)" fill="url(#linear-gradient-9)"/>
            <path id="Path_1623" data-name="Path 1623" d="M20695.883-11307.615a15.977,15.977,0,0,1,.457,2.6s-.273-.543-.836-1.424C20695.188-11307,20695.883-11307.615,20695.883-11307.615Z" transform="translate(-20692.299 11310.644)" fill="url(#linear-gradient-10)"/>
          </g>
          <g id="Group_3382" data-name="Group 3382" transform="translate(322.2 2292.2)">
            <circle id="Ellipse_573" data-name="Ellipse 573" cx="1.8" cy="1.8" r="1.8" fill="#fff"/>
            <circle id="Ellipse_572" data-name="Ellipse 572" cx="0.9" cy="0.9" r="0.9" transform="translate(0.9 0.9)" fill="#257ed7"/>
          </g>
        </g>
      </g>
    </g>
  </g>
</svg>
