<svg xmlns="http://www.w3.org/2000/svg" xmlns:xlink="http://www.w3.org/1999/xlink" width="130" height="117" viewBox="0 0 130 117">
  <defs>
    <style>
      .cls-1 {
        fill: #fff;
        stroke: #707070;
      }

      .cls-2 {
        clip-path: url(#clip-path);
      }

      .cls-3 {
        fill: #2ed1a0;
      }

      .cls-4 {
        fill: #2ed1cc;
      }

      .cls-5 {
        fill: #2ebbd1;
      }

      .cls-6 {
        fill: #2e85d1;
      }

      .cls-7 {
        fill: #009dcc;
      }

      .cls-8 {
        filter: url(#Path_3269-2);
      }

      .cls-9 {
        filter: url(#Path_3268-2);
      }

      .cls-10 {
        filter: url(#Path_3267-2);
      }

      .cls-11 {
        filter: url(#Path_3266);
      }

      .cls-12 {
        filter: url(#Path_3265);
      }

      .cls-13 {
        filter: url(#Path_3264-2);
      }

      .cls-14 {
        filter: url(#Path_3271);
      }

      .cls-15 {
        filter: url(#Path_3270);
      }

      .cls-16 {
        filter: url(#Path_3269);
      }

      .cls-17 {
        filter: url(#Path_3268);
      }

      .cls-18 {
        filter: url(#Path_3267);
      }

      .cls-19 {
        filter: url(#Path_3264);
      }
    </style>
    <clipPath id="clip-path">
      <rect id="Rectangle_4048" data-name="Rectangle 4048" class="cls-1" width="130" height="117" transform="translate(582 5072)"/>
    </clipPath>
    <filter id="Path_3264" x="112.594" y="7.438" width="63.749" height="36.166" filterUnits="userSpaceOnUse">
      <feOffset dy="1" input="SourceAlpha"/>
      <feGaussianBlur stdDeviation="1.5" result="blur"/>
      <feFlood flood-color="#7996b4" flood-opacity="0.243"/>
      <feComposite operator="in" in2="blur"/>
      <feComposite in="SourceGraphic"/>
    </filter>
    <filter id="Path_3267" x="112.594" y="138.896" width="63.749" height="36.166" filterUnits="userSpaceOnUse">
      <feOffset dy="1" input="SourceAlpha"/>
      <feGaussianBlur stdDeviation="1.5" result="blur-2"/>
      <feFlood flood-color="#7996b4" flood-opacity="0.243"/>
      <feComposite operator="in" in2="blur-2"/>
      <feComposite in="SourceGraphic"/>
    </filter>
    <filter id="Path_3268" x="56.283" y="138.896" width="63.749" height="36.166" filterUnits="userSpaceOnUse">
      <feOffset dy="1" input="SourceAlpha"/>
      <feGaussianBlur stdDeviation="1.5" result="blur-3"/>
      <feFlood flood-color="#7996b4" flood-opacity="0.243"/>
      <feComposite operator="in" in2="blur-3"/>
      <feComposite in="SourceGraphic"/>
    </filter>
    <filter id="Path_3269" x="32.5" y="87.531" width="36.165" height="63.75" filterUnits="userSpaceOnUse">
      <feOffset dy="1" input="SourceAlpha"/>
      <feGaussianBlur stdDeviation="1.5" result="blur-4"/>
      <feFlood flood-color="#7996b4" flood-opacity="0.243"/>
      <feComposite operator="in" in2="blur-4"/>
      <feComposite in="SourceGraphic"/>
    </filter>
    <filter id="Path_3270" x="32.5" y="31.221" width="36.165" height="63.748" filterUnits="userSpaceOnUse">
      <feOffset dy="1" input="SourceAlpha"/>
      <feGaussianBlur stdDeviation="1.5" result="blur-5"/>
      <feFlood flood-color="#7996b4" flood-opacity="0.243"/>
      <feComposite operator="in" in2="blur-5"/>
      <feComposite in="SourceGraphic"/>
    </filter>
    <filter id="Path_3271" x="56.283" y="7.438" width="63.749" height="36.166" filterUnits="userSpaceOnUse">
      <feOffset dy="1" input="SourceAlpha"/>
      <feGaussianBlur stdDeviation="1.5" result="blur-6"/>
      <feFlood flood-color="#7996b4" flood-opacity="0.243"/>
      <feComposite operator="in" in2="blur-6"/>
      <feComposite in="SourceGraphic"/>
    </filter>
    <filter id="Path_3264-2" x="123.841" y="103.439" width="36.805" height="42.916" filterUnits="userSpaceOnUse">
      <feOffset input="SourceAlpha"/>
      <feGaussianBlur stdDeviation="1" result="blur-7"/>
      <feFlood flood-color="#7996b4" flood-opacity="0.102"/>
      <feComposite operator="in" in2="blur-7"/>
      <feComposite in="SourceGraphic"/>
    </filter>
    <filter id="Path_3265" x="89.721" y="114.818" width="42.916" height="36.807" filterUnits="userSpaceOnUse">
      <feOffset input="SourceAlpha"/>
      <feGaussianBlur stdDeviation="1" result="blur-8"/>
      <feFlood flood-color="#7996b4" flood-opacity="0.102"/>
      <feComposite operator="in" in2="blur-8"/>
      <feComposite in="SourceGraphic"/>
    </filter>
    <filter id="Path_3266" x="60.206" y="97.777" width="42.916" height="36.805" filterUnits="userSpaceOnUse">
      <feOffset input="SourceAlpha"/>
      <feGaussianBlur stdDeviation="1" result="blur-9"/>
      <feFlood flood-color="#7996b4" flood-opacity="0.102"/>
      <feComposite operator="in" in2="blur-9"/>
      <feComposite in="SourceGraphic"/>
    </filter>
    <filter id="Path_3267-2" x="54.938" y="63.658" width="36.805" height="42.916" filterUnits="userSpaceOnUse">
      <feOffset input="SourceAlpha"/>
      <feGaussianBlur stdDeviation="1" result="blur-10"/>
      <feFlood flood-color="#7996b4" flood-opacity="0.102"/>
      <feComposite operator="in" in2="blur-10"/>
      <feComposite in="SourceGraphic"/>
    </filter>
    <filter id="Path_3268-2" x="71.978" y="34.143" width="36.806" height="42.916" filterUnits="userSpaceOnUse">
      <feOffset input="SourceAlpha"/>
      <feGaussianBlur stdDeviation="1" result="blur-11"/>
      <feFlood flood-color="#7996b4" flood-opacity="0.102"/>
      <feComposite operator="in" in2="blur-11"/>
      <feComposite in="SourceGraphic"/>
    </filter>
    <filter id="Path_3269-2" x="99.987" y="28.875" width="42.916" height="36.807" filterUnits="userSpaceOnUse">
      <feOffset input="SourceAlpha"/>
      <feGaussianBlur stdDeviation="1" result="blur-12"/>
      <feFlood flood-color="#7996b4" flood-opacity="0.102"/>
      <feComposite operator="in" in2="blur-12"/>
      <feComposite in="SourceGraphic"/>
    </filter>
  </defs>
  <g id="Mask_Group_121" data-name="Mask Group 121" class="cls-2" transform="translate(-582 -5072)">
    <g id="Ring_Chart2" data-name="Ring Chart2" transform="translate(868.988 5332.926)">
      <g class="cls-19" transform="matrix(1, 0, 0, 1, -286.99, -260.93)">
        <path id="Path_3264-3" data-name="Path 3264" class="cls-3" d="M2.462-249.988A79.316,79.316,0,0,1,57.211-227.31l-4.487,4.487A72.971,72.971,0,0,0,2.462-243.642Z" transform="translate(114.63 260.93)"/>
      </g>
      <path id="Path_3265-2" data-name="Path 3265" class="cls-4" d="M168.853-175.027a79.316,79.316,0,0,1,22.678,54.749h-6.346a72.971,72.971,0,0,0-20.819-50.262Z" transform="translate(-282.894 -51.178)"/>
      <path id="Path_3266-2" data-name="Path 3266" class="cls-4" d="M191.531,2.462a79.316,79.316,0,0,1-22.678,54.749l-4.487-4.487A72.971,72.971,0,0,0,185.185,2.462Z" transform="translate(-282.894 -172.356)"/>
      <g class="cls-18" transform="matrix(1, 0, 0, 1, -286.99, -260.93)">
        <path id="Path_3267-3" data-name="Path 3267" class="cls-3" d="M57.211,168.853A79.316,79.316,0,0,1,2.462,191.531v-6.346a72.971,72.971,0,0,0,50.262-20.819Z" transform="translate(114.63 -21.97)"/>
      </g>
      <g class="cls-17" transform="matrix(1, 0, 0, 1, -286.99, -260.93)">
        <path id="Path_3268-3" data-name="Path 3268" class="cls-5" d="M-120.278,191.531a79.316,79.316,0,0,1-54.749-22.678l4.487-4.487a72.971,72.971,0,0,0,50.262,20.819Z" transform="translate(235.81 -21.97)"/>
      </g>
      <g class="cls-16" transform="matrix(1, 0, 0, 1, -286.99, -260.93)">
        <path id="Path_3269-3" data-name="Path 3269" class="cls-4" d="M-227.31,57.211A79.316,79.316,0,0,1-249.988,2.462h6.346a72.971,72.971,0,0,0,20.819,50.262Z" transform="translate(286.99 88.57)"/>
      </g>
      <g class="cls-15" transform="matrix(1, 0, 0, 1, -286.99, -260.93)">
        <path id="Path_3270-2" data-name="Path 3270" class="cls-6" d="M-249.988-120.279a79.316,79.316,0,0,1,22.678-54.749l4.487,4.487a72.971,72.971,0,0,0-20.819,50.262Z" transform="translate(286.99 209.75)"/>
      </g>
      <g class="cls-14" transform="matrix(1, 0, 0, 1, -286.99, -260.93)">
        <path id="Path_3271-2" data-name="Path 3271" class="cls-7" d="M-175.027-227.31a79.316,79.316,0,0,1,54.749-22.678v6.346a72.971,72.971,0,0,0-50.262,20.819Z" transform="translate(235.81 260.93)"/>
      </g>
    </g>
    <g id="Ring_Chart2-2" data-name="Ring Chart2" transform="translate(422.393 5236.182) rotate(120)">
      <g class="cls-13" transform="matrix(-0.5, -0.87, 0.87, -0.5, -221.99, -56.13)">
        <path id="Path_3264-4" data-name="Path 3264" class="cls-3" d="M2.462-249.988A48,48,0,0,1,35.6-236.263l-2.716,2.716a44.163,44.163,0,0,0-30.419-12.6Z" transform="translate(-57.62 -12.47) rotate(120)"/>
      </g>
      <g class="cls-12" transform="matrix(-0.5, -0.87, 0.87, -0.5, -221.99, -56.13)">
        <path id="Path_3265-3" data-name="Path 3265" class="cls-4" d="M167.081-175.027a48,48,0,0,1,13.725,33.135h-3.84a44.163,44.163,0,0,0-12.6-30.419Z" transform="translate(60.24 -95.47) rotate(120)"/>
      </g>
      <g class="cls-11" transform="matrix(-0.5, -0.87, 0.87, -0.5, -221.99, -56.13)">
        <path id="Path_3266-3" data-name="Path 3266" class="cls-4" d="M180.806,2.462A48,48,0,0,1,167.081,35.6l-2.716-2.716a44.163,44.163,0,0,0,12.6-30.419Z" transform="translate(184.44 -23.77) rotate(120)"/>
      </g>
      <g class="cls-10" transform="matrix(-0.5, -0.87, 0.87, -0.5, -221.99, -56.13)">
        <path id="Path_3267-4" data-name="Path 3267" class="cls-3" d="M35.6,167.081A48,48,0,0,1,2.462,180.806v-3.84a44.163,44.163,0,0,0,30.419-12.6Z" transform="translate(232.32 154.93) rotate(120)"/>
      </g>
      <g class="cls-9" transform="matrix(-0.5, -0.87, 0.87, -0.5, -221.99, -56.13)">
        <path id="Path_3268-4" data-name="Path 3268" class="cls-5" d="M-141.893,180.806a48,48,0,0,1-33.135-13.725l2.716-2.716a44.163,44.163,0,0,0,30.419,12.6Z" transform="translate(160.62 279.13) rotate(120)"/>
      </g>
      <g class="cls-8" transform="matrix(-0.5, -0.87, 0.87, -0.5, -221.99, -56.13)">
        <path id="Path_3269-4" data-name="Path 3269" class="cls-4" d="M-236.263,35.6A48,48,0,0,1-249.988,2.462h3.84a44.163,44.163,0,0,0,12.6,30.419Z" transform="translate(17.04 266.17) rotate(120)"/>
      </g>
      <path id="Path_3270-3" data-name="Path 3270" class="cls-6" d="M-249.988-141.893a48,48,0,0,1,13.725-33.135l2.716,2.716a44.163,44.163,0,0,0-12.6,30.419Z" transform="translate(0 -60.567)"/>
      <path id="Path_3271-3" data-name="Path 3271" class="cls-7" d="M-175.027-236.263a48,48,0,0,1,33.135-13.725v3.84a44.163,44.163,0,0,0-30.419,12.6Z" transform="translate(-60.567 0)"/>
    </g>
  </g>
</svg>
