<svg xmlns="http://www.w3.org/2000/svg" width="126.083" height="47.318" viewBox="0 0 126.083 47.318">
  <g id="Group_3247" data-name="Group 3247" transform="translate(0)">
    <text id="WALLET" transform="translate(21.42 40.318)" fill="#21c6bf" font-size="22" font-family="ProximaNova-Medium, Proxima Nova" font-weight="500" letter-spacing="0.02em"><tspan x="0" y="0">WALLET</tspan></text>
    <g id="logo_v4" data-name="logo v4" transform="translate(0 0)">
      <path id="Path_1760" data-name="Path 1760" d="M10.738-20.158a4.653,4.653,0,0,0-1.774-1.277,6.291,6.291,0,0,0-2.2-.345,8.047,8.047,0,0,0-2.119.243,3.973,3.973,0,0,0-1.45.7,2.739,2.739,0,0,0-.831,1.085A3.639,3.639,0,0,0,2.1-18.333a2.818,2.818,0,0,0,.264,1.287,2.265,2.265,0,0,0,.811.872,5.4,5.4,0,0,0,1.409.608q.862.253,2.058.5t2.169.527a6.57,6.57,0,0,1,1.652.71,3.052,3.052,0,0,1,1.044,1.054,3.111,3.111,0,0,1,.365,1.581,3.076,3.076,0,0,1-1.348,2.7,6.459,6.459,0,0,1-3.72.933,8.3,8.3,0,0,1-3.092-.537A7.436,7.436,0,0,1,1.209-9.8l.3-.264A6.749,6.749,0,0,0,3.9-8.419a7.948,7.948,0,0,0,2.93.507,6.234,6.234,0,0,0,3.4-.8,2.684,2.684,0,0,0,1.247-2.423,2.993,2.993,0,0,0-.284-1.368,2.614,2.614,0,0,0-.872-.963,5.542,5.542,0,0,0-1.5-.689,20.9,20.9,0,0,0-2.149-.527q-1.2-.223-2.119-.476a5.962,5.962,0,0,1-1.561-.649A2.654,2.654,0,0,1,2.02-16.8a3.1,3.1,0,0,1-.324-1.49,3.69,3.69,0,0,1,.355-1.652,3.378,3.378,0,0,1,1.014-1.216,4.638,4.638,0,0,1,1.581-.75,7.849,7.849,0,0,1,2.078-.253,6.654,6.654,0,0,1,2.4.4A4.968,4.968,0,0,1,11-20.442ZM14.63-7.669V-22.064h.405V-7.669Zm4.42,0V-22.064h.405V-8.075H28.5v.405Zm8.292-14.394L33.4-8.176l6.042-13.888h.446L33.627-7.669h-.446L26.916-22.064ZM51.731-8.075v.405H42.284V-22.064h9.265v.405h-8.86v6.427h7.765v.405H42.689v6.751Zm3.061.405V-22.064h5.859a3.576,3.576,0,0,1,1.622.375,4.138,4.138,0,0,1,1.287.993,4.737,4.737,0,0,1,.841,1.4,4.35,4.35,0,0,1,.3,1.591,4.914,4.914,0,0,1-.264,1.6,4.408,4.408,0,0,1-.75,1.368,3.95,3.95,0,0,1-1.166.973,3.6,3.6,0,0,1-1.49.436l3.649,5.656H64.2L60.55-13.326H55.2v5.656Zm.405-6.062h5.6a3.063,3.063,0,0,0,1.46-.345,3.584,3.584,0,0,0,1.1-.9,4.063,4.063,0,0,0,.7-1.267A4.47,4.47,0,0,0,64.3-17.7a3.949,3.949,0,0,0-.284-1.48,4.142,4.142,0,0,0-.781-1.257,3.937,3.937,0,0,0-1.166-.882,3.131,3.131,0,0,0-1.419-.335H55.2Zm31.364-8.13L82.405-9.6,78.229-21.861h-1.4l-4.237,12.2-4.1-12.2H66.957L71.741-7.669H73.3l4.176-12.1,4.156,12.1h1.581L88-21.861ZM91.549-7.669h1.5V-21.861h-1.5Zm17.314-14.192v11.515L99.719-21.861H98.483V-7.669h1.5V-19.185l9.123,11.515h1.237V-21.861ZM125.771-9.98a6.144,6.144,0,0,1-3.71,1.095A5.815,5.815,0,0,1,116-14.765a5.809,5.809,0,0,1,6.082-5.879,5.788,5.788,0,0,1,4.278,1.662l.933-.953a6.993,6.993,0,0,0-5.271-2.048,7.141,7.141,0,0,0-7.5,7.217A7.136,7.136,0,0,0,122-7.548a7.831,7.831,0,0,0,5.21-1.8v-5.413h-1.439Z" transform="translate(-1.209 22.165)" fill="#102f54"/>
    </g>
  </g>
</svg>
