<svg xmlns="http://www.w3.org/2000/svg" width="51.211" height="51.211" viewBox="0 0 51.211 51.211">
  <path id="HP_New_Logo_2D" d="M26.456,52.061c-.255,0-.508,0-.761-.012l5.233-14.382h7.2a3.531,3.531,0,0,0,3.084-2.159l5.677-15.594a3.239,3.239,0,0,0-3.25-4.642H33.65L25.267,38.308h0L20.511,51.366A25.612,25.612,0,0,1,19.543,1.8l-4.9,13.478h0L6.486,37.668h5.427l6.933-19.03h4.078l-6.933,19.03h5.425l6.46-17.754a3.239,3.239,0,0,0-3.247-4.642H20.067L25.3.877C25.687.86,26.07.85,26.456.85a25.606,25.606,0,1,1,0,51.211ZM41.949,18.625H37.871l-5.71,15.667h4.077Z" transform="translate(-0.85 -0.849)" fill="#21415d"/>
</svg>
